<svg width="40" height="48.38" version="1.0" xmlns="http://www.w3.org/2000/svg"><path d="m20.019 48.38c-11.055 0-19.981-8.9251-19.981-19.981l4.1e-4 -28.399h39.962v28.399c0 11.055-8.9257 19.981-19.981 19.981" style="fill-rule:evenodd"/><path d="m0.28095 2.9921v-2.6371h39.315l0.03823 2.6371zm0 5.325v-2.6371h39.315l0.03823 2.6371zm0 5.274v-2.6371h39.315l0.03823 2.6371zm0 5.2741v-2.6371h39.315l0.03823 2.6371zm0 5.1728v-2.6371h39.315l0.03823 2.6371z" style="fill:#f9d100"/><g transform="matrix(.075947 0 0 .075947 -1.1467 -1.3902)"><path d="m379.37 197.93v-174.95h157.58v174.95z" style="fill:#fff"/><path d="m476.87 81.74c-9.3501 0-8.0249-8.0125-6.6876-13.35 0.0127-5.3465 2.6751-9.3525 2.6751-13.36 1.3376-2.6702 0-4.0065-2.6751-5.3362-2.6625-5e-3 -4.0001 0-5.3374-1.3401-4-1.3361-5.35-2.6662-8.0125-2.6662-1.3375-5e-3 -1.3375 1.3301-2.6751 2.6662h-5.3372c-1.3376 0-4.0129 0-5.3501 1.3401-1.3251 2.666-1.3376 4.0011-2.6624 5.3362v5.3475c1.3372-1.34 3.9996-2.6762 5.3372-2.6762h4.0125c-1.3372 1.3362-5.3501 2.6762-8.025 2.6762-2.6624 1.3299-4 1.3299-6.6749 0-1.3251-5e-3 -1.3375 1.3299-2.6624 1.3299 0 2.6712 5.3372 4.0064 9.3372 4.0064 2.6876 0 2.6749 0 4.0125-1.3301 0 1.3301 0 1.3301-1.3376 2.6664 0.0128 0 0 1.34 0 1.34 1.3376-5e-3 4.0129 0 6.6752-2.6762 1.35-1.3351 2.6749-2.6702 4.0125-4.0064 0 4.0064 0 5.3426-1.3376 8.0139-1.3249 4.006-2.6749 6.6774-4 8.0125-2.6749 2.6712-6.6874 4.006-9.3498 4.006-6.6752 0-12.025-6.6774-12.025-12.018 0.0127-6.6778 4.0128-14.691 5.3376-18.698 1.35-1.3348 2.6748-5.3361 0-6.6772-2.6625-2.6699-9.3501-2.665-14.687-2.665-9.3378-5e-3 -12.012 0-20.025 1.3299h-13.362c0.0124 6.6776 4.0124 12.019 10.687 13.36 5.35-5e-3 12.025 0 17.363 0 0-5e-3 5.3376 0 5.3376 1.3301 0.0124 0-1.3376 1.3362-1.3376 1.3362h-32.05c0.0124 2.6699 1.3372 5.3461 2.6748 8.0125 4.0125 4.006 10.688 5.3461 14.687 5.3461 4.0129-5e-3 6.6753-1.3401 9.3501 0 2.6751-5e-3 5.3376 0 5.3376 0 0.0124 1.3311-1.3252 1.3311-4 1.3311h-29.381c5e-3 2.6714 1.3312 6.6778 4.006 9.3526 2.6752 2.6664 8.0125 4.0064 12.012 4.0064 6.6878-5e-3 10.688 0 17.363 0 0.0124-5e-3 1.3376 0 1.3376 0 0.0124-5e-3 -1.3376 0-1.3376 1.3312-6.6625 0-10.675 1.3348-17.363 1.3348-6.6624 1.3351-9.3372 1.3415-16.018 2.6712 1.3436 4.0065 4.006 6.6778 8.0185 9.354 2.6751 1.3299 6.6752 1.3299 10.675 1.3299 8.0253 0 13.363-1.3299 21.363-2.6714h1.3376c0.0124 0 0 1.3415-1.3376 1.3415-5.3249 1.3299-12.012 2.665-18.687 5.3362-8.0125 2.6712-13.35 4.0061-21.369 5.3412 6.6812 6.6772 9.3436 9.3535 13.356 9.3535 5.35-5e-3 10.687-2.6762 17.363-5.3461 5.3501-2.6712 8.0125-4.0074 12.013-5.3425 1.35-1.3349 1.3372-1.3299 1.3372-1.3299 0.0127-5e-3 0 1.3299-1.3372 1.3299-5.3378 4.0064-10.675 6.6826-18.688 10.689-5.3374 4.0015-8.025 5.3378-12.025 8.0076 4.0125 2.6712 8.0125 4.0064 14.688 4.0064 2.6749 0 5.3496 0 8.0125-2.6702 2.6748-1.3361 5.3372-4.006 8.0125-6.6724 2.6748-4.011 4.0124-5.3476 8.0124-8.0175 0.0125 0 1.3372-1.3361 1.3372-1.3361 0.0127 0-1.3372 1.3361-1.3372 1.3361-5.3376 6.6764-8.0124 10.684-13.35 17.36 5.3501 0 9.3501 0 13.35-2.6702 6.6874-2.6709 9.3498-5.3422 13.363-9.3438v1.3302c0 1.3361-4.0129 5.3475-8.0125 8.0135-4.0001 2.6702-8.0125 5.3476-12.025 8.0125h1.3375c1.3376 1.3351 1.3376 1.3415 1.3376 1.3415-1.3376 2.6649-4.0124 4.006-5.35 5.3362-2.6625 1.3351-5.3376 2.6712-6.6749 2.6712h-9.3501c0.0124 0 0 1.3348-1.3251 1.3348-1.3372 0-2.6749 1.3415-2.6749 2.6714 0 2.6712 0 4.0064 1.3376 4.0064l1.3372-1.3301c1.3375-1.3411 1.3251-1.3411 1.3251-1.3411 0.0124 1.3361 1.3376 1.3411 1.3376 1.3411 1.3372-5e-3 1.3372-1.3411 2.6749-1.3411h1.3375c-1.3375 1.3361-2.6751 2.6712-4.0124 2.6712-1.3252 1.3348-1.3376 1.3348-1.3376 1.3348 0.0124 1.3365 0 1.3415 0 1.3415-1.3251 1.3298-1.3251 2.6649 0 5.3362 0.0124 1.3361 1.3376 2.6762 4.0125 2.6762v-2.6762-1.3302c0-5e-3 1.3375 0 1.3375 0 1.3372-1.3411 1.3372-1.3411 1.3372-2.6762 1.3376-1.3348 1.3252-1.3298 2.6629-2.6712 0.0124 1.3365-1.3376 2.6712-1.3376 4.0064 0.0124 1.3362 0 2.6714-1.3252 4.0075l1.3252 1.3401c0.0124 2.6664 0 4.0011 2.6749 4.0011 1.3375 1.3351 4 1.3351 6.6752 1.3351-1.3252 0-2.6752-1.3351-4.0001-2.6699v-1.3366c0-1.3348 1.3249-1.3298 1.3249-1.3298 0.0124-2.6762 0-4.0065 0-5.3476 0.0124-1.3351 1.3376-4.0064 1.3376-4.0064 0.0124 1.3365 1.3376 2.6712 2.6749 4.0064 0.0127 0 0 1.3411 1.3375 0 1.3376 0 1.3376 1.3411 1.3376 1.3411v2.6664c1.3376 0 4-1.3361 4-2.6664 1.35-2.6762 0-5.3475-1.3375-5.3475 0.0124-1.3348 0-1.3348 0-2.6649-2.6625-1.3411-4.0001-1.3411-4.0001-2.6762v-1.3299c1.3376-1.3415 1.3376-2.6762 2.6752-4.0075 1.3372-5e-3 2.6624-1.34 3.9996-2.6702 0.0127 1.3302 0 1.3302 1.3376 2.6702 0 1.3312 1.3376 1.3312 1.3376 2.666 1.3376-1.3348 1.3376-2.666 2.6624-4.006 1.35-1.3351 2.6749-2.6714 4.0125-4.0065 1.3376-2.6712 2.6752-4.006 2.6752-4.006 1.3372-1.3362 1.3372 1.3348 2.6624 2.6762 0.0124 1.3298 0 1.3298 0 2.6649-1.3251 4.0065-5.3376 12.025-8.0125 17.361-4 6.6778-9.35 13.36-14.688 20.032h8.0124c2.6752 0 6.6752 0 10.688-1.3362 1.3376 2.6714 2.6749 4.0065 4 5.3426 2.6749 2.6714 4.0125 2.6714 6.6872 5.3476 2.6753-2.6762 4.0001-2.6762 6.6753-5.3476 2.6749-1.3361 2.6625-2.6662 5.3374-5.3426 2.6751 1.3362 6.6751 1.3362 9.35 1.3362h9.3501c-6.6749-6.6774-12.025-13.35-16.025-20.032-2.6624-5.3411-5.35-13.35-6.6752-17.361-1.3372-1.3351-1.3372-1.3351 0-2.6649 0-1.3415 1.3252-4.0064 1.3252-2.6762 0.0124 0 2.6749 1.3348 4.0124 4.006 1.3376 1.3351 1.3376 2.6762 2.6752 4.0065 1.3372 1.3351 2.6624 2.6712 2.6624 4.006 1.3372-1.3348 1.3372-1.3348 1.3372-2.666 1.3376-1.34 1.3376-1.34 2.6752-2.6702 1.3376 1.3302 1.3376 2.6702 2.6624 2.6702 1.35 1.3312 1.3376 2.666 2.6749 4.0075 1.3376-6e-3 1.3376 1.3299 0 1.3299 0.0128 1.3351-1.3372 1.3351-2.6749 2.6762-1.3248 1.3301-1.3248 1.3301-1.3248 2.6649 0 0-1.3376 2.6712-1.3376 5.3475 1.3376 1.3302 2.6624 2.6664 5.3372 2.6664-1.3249-1.3361-1.3372-1.3361-1.3372-2.6664 0.0124-5e-3 1.3372-1.3411 1.3372-1.3411h1.3376c0 1.3362 0 0 1.3376 0 0-1.3351 1.3376-2.6649 1.3376-4.0064 1.3372 0 1.3372 2.6712 1.3372 4.0064 0 1.3362 0 2.6714 1.3251 5.3476 0.0124-5e-3 0 0 0 1.3298 0.0124 0 0 1.3366 0 1.3366-1.3251 1.3348-1.3251 2.6699-2.6624 2.6699 1.3372 0 4 0 5.3372-1.3351 2.6751 0 2.6751-1.3348 2.6751-4.0011 1.3372-5e-3 1.3372-1.3401 1.3372-1.3401 0-1.3361-1.3372-2.6664-1.3372-4.0075 0-1.3351 0-2.6649-1.3375-4.0064 1.3375 1.3365 1.3375 1.3415 2.6748 2.6712 0 1.3351 1.3252 1.3351 1.3252 2.6762 1.35-5e-3 1.3376 0 1.3376 0 1.35 1.3302 1.3372 1.3302 1.3372 1.3302 0.0127 1.3361 0 2.6762-1.3372 2.6762 2.6748-5e-3 4.0124-1.3401 5.3372-2.6762 0.0124-2.6714 0-4.0065-1.3249-5.3362 1.3372-5e-3 1.3249 0 1.3249-1.3415-1.3249 0-1.3249 0-1.3249-1.3348-1.3376 0-4.0124-1.3301-5.35-2.6712h2.6749c0.0127 0 1.3375 1.3411 1.3375 1.3411 0-5e-3 1.3376 0 1.3376-1.3411 0 0 1.3249 0 1.3249 1.3411 1.35-5e-3 1.3376 1.3301 1.3376 1.3301 1.35 0 2.6749-1.3301 1.3376-4.0064 0.0124-1.3362-1.3376-2.6714-2.6752-2.6714 0.0124 0-1.3249-1.3348-1.3249-1.3348h-8.0125c-2.6751 0-5.35-1.3312-6.6751-2.6712-2.6749-1.3351-4.0125-2.6714-6.6874-5.3362 0.0124-6e-3 1.3372 0 1.3372-1.3415h2.6753c-5.3376-2.671-9.3501-5.3422-13.363-8.0125-2.6625-2.6709-6.6749-6.6724-8.0125-8.0135 0.0124-1.3351 0-2.6699 0-1.3302 4.0124 4.0015 6.6876 6.6778 13.362 9.3438 5.35 2.6702 8.0125 2.6702 14.687 2.6702-6.6749-6.6762-9.3501-10.684-14.687-17.36l-1.3376-1.3361c1.3376 0 1.3376 1.3361 1.3376 1.3361 4.0124 2.6699 5.3372 4.0065 8.0125 8.0175 4.0124 2.6664 5.3376 5.3362 8.0125 6.6724 2.6748 2.6702 5.3376 2.6702 9.35 2.6702 5.3374 0 9.3374-1.3301 13.35-4.0064-3.9996-2.6699-6.6749-4.0061-12.025-8.0076-6.6625-4.011-12.012-6.6822-18.687-10.689l-1.3376-1.3299c0-5e-3 1.3376 0 1.3376 1.3299 4.0124 1.3351 8.0125 2.6762 12.012 5.3425 6.6872 2.6699 13.362 5.3461 17.363 5.3461 4.0125-5e-3 6.6749-2.6762 13.363-9.3535-8.0125-1.3351-12.025-2.665-21.375-5.3412-6.6625-2.6712-13.35-4.0064-18.688-5.3362 0-6e-3 -1.3372-1.3415-1.3372-1.3415h2.6624c6.6872 1.3351 13.362 2.6714 20.037 2.6714 4.0125 0 8.0125 0 12.012-1.3299 4.0125-2.6762 5.3501-5.3475 6.6878-9.354-6.6752-1.3361-9.3501-1.3298-16.038-2.6712-6.6625 0-10.675-1.3348-17.35-1.3348 0-1.3361-1.3375-1.3312-1.3375-1.3312 1.3375-5e-3 1.3375 0 1.3375 0 6.6749-5e-3 12.013 0 17.35 0 4.0124-5e-3 9.35-1.34 13.362-4.0064 2.6752-2.6749 2.6752-6.6812 2.6752-9.3526h-29.388c-1.3252 0-4.0001 0-4.0001-1.3311 0-5e-3 2.6625 0 5.3374 0 2.6751-1.3401 6.6752 0 10.688 0 4.0125-5e-3 10.675-1.3401 13.35-5.3461 2.6752-2.6714 2.6752-5.3426 2.6752-8.0125h-30.713c-1.3372 0-2.6748-1.3362-2.6748-1.3362 0-1.3351 5.3376-1.3301 6.6749-1.3301 4.0124-5e-3 12.012 0 16.025 0 6.6876-1.3411 10.688-6.6774 10.688-13.36h-12.025c-9.3376-1.3348-12.013-1.3299-21.363-1.3299-4.0001-5e-3 -12.025 0-14.687 2.665-1.3376 1.3361-1.3376 5.3475 0 6.6772 1.3372 4.0065 5.3372 12.02 5.3372 18.698 0 5.3411-5.3372 12.018-10.675 12.018" style="fill-rule:evenodd"/><path d="m431.45 160.53v-1.3298c1.3376-5e-3 1.3376 0 1.3376-1.3415 1.3372 1.3365 1.3249 2.6712 1.3249 4.0064 0.0124 1.3362 0 1.3411-1.3249 2.6714v-2.6714s-1.3376 0-1.3376-1.3351" style="fill-rule:evenodd;fill:#fff"/><path d="m422.1 168.54c-1.3248 0-1.3375 0-1.3375-1.3298-1.3249-5e-3 -1.3372 0-1.3372 0 0.0124 1.3298 0 1.3298 0 2.6664 1.35 1.3348 2.6748 1.3348 4.0124 1.3348 0 0-1.3376 0-1.3376-1.3348z" style="fill-rule:evenodd;fill:#fff"/><path d="m412.75 163.2c0-1.3362 0-1.3362-1.3372-1.3362 0.0124 0 0 0 0-1.3351-1.3252 1.3351-1.3376 1.3351-1.3376 2.6762 0.0124 1.3302 1.3376 2.6664 2.6749 2.6664v-1.3361-1.3351" style="fill-rule:evenodd;fill:#fff"/><path d="m410.09 149.85c-1.3375 0-1.3375 1.3415-2.6748 1.3415v4.0061c0-1.3411 0-1.3411 1.3372-1.3411 0-1.3351 1.3251-1.3351 1.3251-1.3351 0.0124 0 0 0 0-1.3299 0.0124-6e-3 0 0 0.0124-1.3415" style="fill-rule:evenodd;fill:#fff"/><path d="m432.79 141.84s1.3249 0 1.3249 1.3351c0.0124 0 1.3375 0 1.3375 1.3411-1.3251 1.3302-2.6624 1.3302-4 2.6702-1.3376 1.3312-1.3376 1.3312-2.6751 2.666 0.0127 1.3351 0 2.6714 0 4.0065 1.3375 1.3361 1.3375 1.3411 2.6751 1.3411 0-5e-3 1.3376 1.3301 1.3376 1.3301 0 1.3348-1.3376 1.3348-1.3376 2.6762-1.3376-5e-3 -1.3376 1.3298-1.3376 1.3298-1.3248-1.3348-2.6748-1.3298-2.6748-2.6712-1.3252-1.3348-2.6752-1.3348-2.6752 0 0.0124 1.3365-1.3249 2.6712-1.3249 4.0064v5.3476c-1.3376-5e-3 -1.3376 0-2.6751 0-1.3249-1.3401-1.3372-1.3401-2.6749-1.3401 1.35-1.3361 1.3376-2.6664 1.3376-4.0075 0.0124-1.3351 1.3372-1.3351 1.3372-4.0064 0.0127 0 0-1.3348 0-1.3348-1.3249 0-1.3372 0-2.6749 1.3348-1.3252 1.3365-1.3252 1.3415-2.6625 2.6712 0 0 0 1.3351-1.3375 1.3351 0 0-1.3376 0-1.3376-1.3351-1.3249 0-1.3372-1.3298-1.3372-1.3298 1.3372-1.3415 1.3372-1.3415 2.6749-2.6762 1.3375-1.3351 2.6748-1.3301 4-2.6712 0.0124 0 0 0 0-1.3351h-4c-1.3376 0-1.3376 0-2.6749 1.3351 0.0124-1.3351 0-1.3351 0-2.665 0.0124-6e-3 0-1.3415 0-1.3415h10.687c1.3376-1.3348 2.6625-1.3348 4.0001-2.666 2.6876-1.34 2.6749-1.34 4.0124-2.6702 1.3376-1.3411 1.3376-1.3411 2.6752-2.6762" style="fill-rule:evenodd;fill:#a77f29"/><path d="m432.79 141.84s1.3249 0 1.3249 1.3351c0.0124 0 1.3375 0 1.3375 1.3411-1.3251 1.3302-2.6624 1.3302-4 2.6702-1.3376 1.3312-1.3376 1.3312-2.6751 2.666 0.0127 1.3351 0 2.6714 0 4.0065 1.3375 1.3361 1.3375 1.3411 2.6751 1.3411 0-5e-3 1.3376 1.3301 1.3376 1.3301 0 1.3348-1.3376 1.3348-1.3376 2.6762-1.3376-5e-3 -1.3376 1.3298-1.3376 1.3298-1.3248-1.3348-2.6748-1.3298-2.6748-2.6712-1.3252-1.3348-2.6752-1.3348-2.6752 0 0.0124 1.3365-1.3249 2.6712-1.3249 4.0064v5.3476c-1.3376-5e-3 -1.3376 0-2.6751 0-1.3249-1.3401-1.3372-1.3401-2.6749-1.3401 1.35-1.3361 1.3376-2.6664 1.3376-4.0075 0.0124-1.3351 1.3372-1.3351 1.3372-4.0064 0.0127 0 0-1.3348 0-1.3348-1.3249 0-1.3372 0-2.6749 1.3348-1.3252 1.3365-1.3252 1.3415-2.6625 2.6712 0 0 0 1.3351-1.3375 1.3351 0 0-1.3376 0-1.3376-1.3351-1.3249 0-1.3372-1.3298-1.3372-1.3298 1.3372-1.3415 1.3372-1.3415 2.6749-2.6762 1.3375-1.3351 2.6748-1.3301 4-2.6712 0.0124 0 0 0 0-1.3351h-4c-1.3376 0-1.3376 0-2.6749 1.3351 0.0124-1.3351 0-1.3351 0-2.665 0.0124-6e-3 0-1.3415 0-1.3415h10.687c1.3376-1.3348 2.6625-1.3348 4.0001-2.666 2.6876-1.34 2.6749-1.34 4.0124-2.6702 1.3376-1.3411 1.3376-1.3411 2.6752-2.6762z" style="fill:#f9d100"/><path d="m484.88 160.53s-0.0124 0-0.0124-1.3298c0.0124-5e-3 -1.3376 0-1.3376-1.3415-1.3248 1.3365-1.3248 2.6712-1.3248 4.0064 0 1.3362 1.3248 1.3411 1.3248 2.6714 0.0125-1.3351 0-1.3302 1.3376-2.6714 0.0124 0 0 0 0.0124-1.3351" style="fill-rule:evenodd;fill:#fff"/><path d="m494.23 168.54c1.3249 0 1.3249 0 2.6625-1.3298 0-5e-3 0 0 1.3375 0-1.3375 1.3298-1.3375 1.3298-1.3375 2.6664-1.3376 1.3348-1.3376 1.3348-4.0125 1.3348 1.35 0 1.3376 0 1.3376-1.3348 0.0124 0 0-1.3366 0.0124-1.3366" style="fill-rule:evenodd;fill:#fff"/><path d="m503.58 163.2 1.3248-1.3362 1.3376-1.3351v2.6762c0 1.3302-1.3376 2.6664-2.6751 2.6664 1.3375 0 1.3375-1.3361 1.3375-1.3361 0-1.3351-1.3375-1.3302-1.3248-1.3351" style="fill-rule:evenodd;fill:#fff"/><path d="m506.24 149.85c1.3372 0 1.3249 1.3415 2.6625 1.3415 0.0124 1.3299 1.3376 2.665 0 4.0061 0.0124-1.3411 0-1.3411-1.3376-1.3411 0.0124-1.3351 0-1.3351-1.3249-1.3351v-1.3299-1.3415" style="fill-rule:evenodd;fill:#fff"/><path d="m483.54 141.84s-0.0125 0-1.3372 1.3351l-1.3376 1.3411c2.6749 1.3302 2.6624 1.3302 4 2.6702 1.35 1.3312 2.6749 1.3312 2.6749 2.666 1.3376 1.3351 1.3376 2.6714 0 4.0065-1.3249 1.3361-1.3376 1.3411-2.6749 1.3411 0.0124-5e-3 0 1.3301-1.3376 1.3301 1.35 1.3348 1.3376 1.3348 1.3376 2.6762 1.35-5e-3 1.3372 1.3298 2.6749 1.3298 1.3376-1.3348 1.3376-1.3298 2.6752-2.6712 0-1.3348 1.3372-1.3348 1.3372 0 1.3375 1.3365 1.3251 2.6712 1.3251 4.0064 0.0124 2.6714 0 2.6714 1.3376 5.3476 0.0124-5e-3 1.3372 0 1.3372 0 1.3376-1.3401 1.3376-1.3401 2.6751-1.3401 0-1.3361-1.3375-2.6664-1.3375-4.0075 0-1.3351 0-1.3351-1.3376-4.0064 0 0 0-1.3348 1.3376-1.3348 0 0 1.3375 0 1.3375 1.3348 1.3372 1.3365 1.3372 1.3415 2.6625 2.6712 0.0124 0 1.3376 1.3351 1.3376 1.3351 1.35 0 1.3372 0 1.3372-1.3351 1.3375 0 1.3375-1.3298 2.6751-1.3298-1.3376-1.3415-2.6751-1.3415-4.0124-2.6762-1.3252-1.3351-1.3376-1.3301-2.6629-2.6712-1.3372 0-1.3372 0-1.3372-1.3351h5.3374c0.0127 0 1.3375 0 1.3375 1.3351v-2.665-1.3415h-10.687c-1.3252-1.3348-2.6628-1.3348-4-2.666-1.3376-1.34-2.6752-1.34-4.0129-2.6702-1.3249-1.3411-1.3372-1.3411-2.6624-2.6762" style="fill-rule:evenodd;fill:#a77f29"/><path d="m483.54 141.84s-0.0125 0-1.3372 1.3351l-1.3376 1.3411c2.6749 1.3302 2.6624 1.3302 4 2.6702 1.35 1.3312 2.6749 1.3312 2.6749 2.666 1.3376 1.3351 1.3376 2.6714 0 4.0065-1.3249 1.3361-1.3376 1.3411-2.6749 1.3411 0.0124-5e-3 0 1.3301-1.3376 1.3301 1.35 1.3348 1.3376 1.3348 1.3376 2.6762 1.35-5e-3 1.3372 1.3298 2.6749 1.3298 1.3376-1.3348 1.3376-1.3298 2.6752-2.6712 0-1.3348 1.3372-1.3348 1.3372 0 1.3375 1.3365 1.3251 2.6712 1.3251 4.0064 0.0124 2.6714 0 2.6714 1.3376 5.3476 0.0124-5e-3 1.3372 0 1.3372 0 1.3376-1.3401 1.3376-1.3401 2.6751-1.3401 0-1.3361-1.3375-2.6664-1.3375-4.0075 0-1.3351 0-1.3351-1.3376-4.0064 0 0 0-1.3348 1.3376-1.3348 0 0 1.3375 0 1.3375 1.3348 1.3372 1.3365 1.3372 1.3415 2.6625 2.6712 0.0124 0 1.3376 1.3351 1.3376 1.3351 1.35 0 1.3372 0 1.3372-1.3351 1.3375 0 1.3375-1.3298 2.6751-1.3298-1.3376-1.3415-2.6751-1.3415-4.0124-2.6762-1.3252-1.3351-1.3376-1.3301-2.6629-2.6712-1.3372 0-1.3372 0-1.3372-1.3351h5.3374c0.0127 0 1.3375 0 1.3375 1.3351v-2.665-1.3415h-10.687c-1.3252-1.3348-2.6628-1.3348-4-2.666-1.3376-1.34-2.6752-1.34-4.0129-2.6702-1.3249-1.3411-1.3372-1.3411-2.6624-2.6762z" style="fill:#f9d100"/><path d="m435.47 63.044h5.3376c4.0124-1.3361 6.6749-2.666 10.675-4.006h0.0124c-1.3375 2.6699-4.0124 5.3461-8.0249 5.3461-4-5e-3 -8.0125-1.3401-8-1.3401" style="fill-rule:evenodd;fill:#ee1c2a"/><path d="m447.48 67.05c1.3376-1.3362 1.3376-2.6664 2.6749-4.0065 1.3375-1.3361 2.6628-2.666 4-5.3422h-1.3372c-2.6628-1.3351-4-1.3301-6.6752-1.3301-1.3249-5e-3 -2.6749 0-4.0125 1.3301 0.0125-1.3351 0-2.6712 1.3376-4.0064 0.0124-1.3351 0-1.3299 1.3373-2.6714 0.0128-1.3348 2.6752-1.3298 4.0129-1.3298 1.3372-5e-3 2.6624-1.3401 5.3372 0 0-5e-3 -1.3372 1.3298-1.3372 1.3298 0.0124 2.6714 1.3372 4.0065 1.3372 5.3476 1.3376 1.3301 1.3376 2.6664 1.3376 4.0064-1.3376 1.3299-1.3376 1.3299-2.6749 2.666-2.6628 1.3351-4 2.6702-5.3376 4.0065" style="fill-rule:evenodd;fill:#a77f29"/><path d="m447.48 67.05c1.3376-1.3362 1.3376-2.6664 2.6749-4.0065 1.3375-1.3361 2.6628-2.666 4-5.3422h-1.3372c-2.6628-1.3351-4-1.3301-6.6752-1.3301-1.3249-5e-3 -2.6749 0-4.0125 1.3301 0.0125-1.3351 0-2.6712 1.3376-4.0064 0.0124-1.3351 0-1.3299 1.3373-2.6714 0.0128-1.3348 2.6752-1.3298 4.0129-1.3298 1.3372-5e-3 2.6624-1.3401 5.3372 0 0-5e-3 -1.3372 1.3298-1.3372 1.3298 0.0124 2.6714 1.3372 4.0065 1.3372 5.3476 1.3376 1.3301 1.3376 2.6664 1.3376 4.0064-1.3376 1.3299-1.3376 1.3299-2.6749 2.666-2.6628 1.3351-4 2.6702-5.3376 4.0065z" style="fill:#f9d100"/><path d="m460.84 51.024c-1.3376 0-1.35 1.3415-1.35 1.3415 0.0124-5e-3 0 1.3299 1.3376 1.3299h1.3372c0.0127-1.3351 0-1.3299 0-1.3299 0.0127-5e-3 0 0 1.3375 0 0-5e-3 1.3376 0 1.3376 1.3299v1.3351c-1.3376 0-1.3376-1.3351-2.6751 0h-1.3372c-1.3252 0-2.6629 0-2.6629-2.665 0-5e-3 -1.3372 0-1.3372-1.3415z" style="fill-rule:evenodd;fill:#fff"/></g><path d="m12.716 29.921c0 0.1014-4.55e-4 0.2028-4.55e-4 0.30466 4.55e-4 0.2024 0.10148 0.30428 0.20284 0.40527l3.8e-4 -0.20287h0.30388c-0.10103-0.10138-0.20278-0.10138-0.30428-0.2024-0.10099-0.10186-0.10137-0.20326-0.20239-0.30466m-0.60858 6.2884c0 0.10137-3.8e-4 0.30425 0.20248 0.30425 3.8e-4 0 0-0.10148 0-0.10148 0.10188 0 0-0.10099 0.1014-0.10099 4.56e-4 -0.10178 0-0.10178 0.10148-0.20326 3.8e-4 0 0-0.10102-0.10148-0.10102 4.56e-4 -3.8e-4 -0.1014 0-0.1014 0-0.10099-3.8e-4 -0.20285 0.10102-0.20248 0.2025m-0.40567 0c0 0.10137 0.10102 0.30425 0.20242 0.30425 4.55e-4 0 0-0.10148 0.10148-0.10148 3.8e-4 0 0-0.10099 0-0.10099 3.8e-4 -0.10178 0.1014-0.10178 0.1014-0.20326 3.8e-4 0 0-0.10102-0.1014-0.10102 3.8e-4 -3.8e-4 0 0-0.10148 0-0.10102-3.8e-4 -0.20279 0.10102-0.20242 0.2025m4.2598 1.5213c0 0.1015-3.03e-4 0.30475 0.1011 0.30475 0.10178-4.5e-4 0.1014-0.10188 0.1014-0.10188 0.10186 0 0-0.10137 0-0.10137 0.10186-0.1015 0.10148-0.10102 0.20288-0.20288 3.8e-4 0-0.1014-0.1014-0.1014-0.1014h-0.10148c-0.10099 0-0.20277 0.1014-0.2025 0.20278m-0.40564 0c0 0.1015-3.79e-4 0.30475 0.2025 0.30475 3.8e-4 -4.5e-4 0-0.10188 0-0.10188 0.10177 0 0.1014-0.10137 0.1014-0.10137 3.8e-4 -0.1015 0-0.10102 0.10148-0.20288 3.03e-4 0 0-0.1014-0.10148-0.1014h-0.1014c-0.1011 0-0.20288 0.1014-0.2025 0.20278m6.3898 0c0 0.1015 0.10099 0.30475 0.20239 0.30475 4.56e-4 -4.5e-4 0-0.10188 0.10148-0.10188 3.8e-4 0 0-0.10137 0-0.10137 3.8e-4 -0.1015 0.1014-0.10102 0.1014-0.20288 3.79e-4 0 0-0.1014 0-0.1014h-0.20288c-0.10099 0-0.20277 0.1014-0.20239 0.20278m-0.30427 0c0 0.1015-4.56e-4 0.30475 0.10102 0.30475 0.10177-4.5e-4 0.1014-0.10188 0.1014-0.10188 3.8e-4 0 0-0.10137 0-0.10137 3.8e-4 -0.1015 0.10148-0.10102 0.10148-0.20288 3.8e-4 0 0-0.1014 0-0.1014h-0.20287c-0.10102 0-0.10148 0.1014-0.10102 0.20278m5.477 0c0 0.1015 0.10099 0.30475 0.2025 0.30475 3.8e-4 -4.5e-4 0-0.10188 0-0.10188 0.10174 0 0.10137-0.10137 0.10137-0.10137 3.8e-4 -0.1015 0-0.10102 0.1014-0.20288 4.55e-4 0 0-0.1014-0.1014-0.1014h-0.10137c-0.1011 0-0.20288 0.1014-0.2025 0.20278m-0.40565 0c0 0.1015 0.101 0.30475 0.2024 0.30475 3.8e-4 -4.5e-4 0-0.10188 0.1014-0.10188 4.55e-4 0 0-0.10137 0-0.10137 4.55e-4 -0.1015 0.10148-0.10102 0.10148-0.20288 3.8e-4 0 0-0.1014 0-0.1014h-0.20287c-0.10102 0-0.20288 0.1014-0.2024 0.20278" style="fill-rule:evenodd;fill:#fff"/><path d="m21.642 47.974c-0.60861 0-1.1161 0.10186-1.6233 0.10186-0.50667-3.8e-4 -1.0142-0.10186-1.6228-0.10186l4.56e-4 -4.057c0-0.81142 0.70953-1.5213 1.6223-1.5213 0.91326 0 1.6228 0.7099 1.6228 1.5213l4.56e-4 4.057z" style="fill-rule:evenodd;fill:#fff"/><path d="m20.019 41.179c-0.40576 0-0.71041 0.1014-1.0147 0.20289l0.30462 0.91277c0.20288-0.10137 0.50678-0.10137 0.70955-0.10137 0.20325 0 0.50713 0 0.71 0.10185l0.30465-0.91325c-0.30427-0.10149-0.6089-0.20251-1.0142-0.20289m1.6228 1.9271 0.70992-0.40564c0.20288 0.30427 0.30388 0.70993 0.30388 1.1161l3.8e-4 0.101h-0.81141c0-0.30426-0.10177-0.50713-0.20279-0.81142m0.60855-0.60852c-0.20285-0.40565-0.60898-0.70952-1.0146-1.0138l-0.4053 0.91242c0.30428 0.10138 0.50667 0.30426 0.70955 0.60853zm-0.40573 4.3613v-1.217h0.81141v1.217zm0-1.4199v-1.3185h0.81141v1.3185zm-3.4484-2.3328-0.71003-0.40564c-0.20285 0.30427-0.30463 0.70993-0.30463 1.1161l3.79e-4 0.101h0.8114c0-0.30426 0.101-0.50713 0.20288-0.81142m-0.60863-0.60852c0.20288-0.40565 0.60815-0.70952 1.0139-1.0138l0.40602 0.91242c-0.30424 0.10138-0.5075 0.30426-0.7103 0.60853zm-0.40564 4.3613v-1.217h0.8114v1.217zm0-1.4199v-1.3185h0.8114v1.3185zm0.8114 2.5356c-0.20288 0-0.50753-0.1014-0.81178-0.1014l3.79e-4 -0.8114h0.8114zm4.4627-0.1014c-0.30428 0-0.60894 0.1014-0.81178 0.1014l3.8e-4 -0.9128h0.81141v0.8114zm-1.5213-6.6941h0.1014v0.1014c-0.1014 0-0.10178-0.10102-0.1014-0.1014zm-2.3328 0h0.1014l-0.10178 0.1014zm13.185-1.6228v-1.3185h2.3328v1.3185zm-5.274 0v-1.3185h2.4342v1.3185zm-5.2742 0v-1.3185h2.4342v1.3185zm-15.721 0v-1.3185h2.3328v1.3185zm5.1727 0v-1.3185h2.4342v1.3185zm5.2741 0v-1.3185h2.4342v1.3185zm7.9113 7.5055h2.0285c-0.70993 0.20287-1.3189 0.40575-2.0289 0.60852l4.56e-4 -0.60852zm-1.2172 0h1.0143v0.60852c-0.30426 0.10151-0.71038 0.10188-1.0147 0.20288l3.79e-4 -0.8114zm-8.9254 0h2.0285v0.60852c-0.7099-0.20277-1.3188-0.40527-2.0285-0.60852m2.2313 0h1.0143v0.8114c-0.30425-0.10137-0.71038-0.101-1.0147-0.20288zm11.867-1.4199h1.4202c-0.50694 0.20287-0.91326 0.50715-1.4206 0.7104l3.79e-4 -0.7104zm-2.637 0h2.4342v0.8114c-0.40576 0.1014-0.81186 0.30427-1.1161 0.40565h-1.3181zm-2.5357 1.217v-1.217h2.3328v1.217zm-12.272-1.217h1.4199v0.70992c-0.50713-0.20277-1.0147-0.50705-1.4199-0.70992m1.6228 0h2.4342v1.217h-1.3186c-0.30425-0.10138-0.71038-0.30425-1.116-0.40565zm2.637 1.217v-1.217h2.3328v1.217zm14.504-2.7385h2.4341c-0.60856 0.50716-1.3186 0.91289-1.9272 1.3185h-0.50697zm-2.6371 1.3185v-1.3185h2.4342v1.3185zm-2.6371 0v-1.3185h2.4342v1.3185zm-1.2172 0v-1.3185h1.0143v1.3185zm-14.605-1.3185h2.4342v1.3185h-0.50715c-0.60853-0.40564-1.3189-0.811-1.9274-1.3185h3.79e-4zm2.6371 1.3185v-1.3185h2.4342v1.3185zm2.6371 0v-1.3185h2.4342v1.3185zm2.637 0v-1.3185h1.0143v1.3185zm17.141-2.7385h0.20221c-0.10159 0.1014-0.20315 0.1014-0.20315 0.20325l9.42e-4 -0.20325zm-2.6373 0h2.3326v0.40564c-0.3038 0.30429-0.60853 0.60865-1.0149 0.81142h-1.3177zm-2.6373 1.2171v-1.2171h2.4342v1.2171zm-2.637 0v-1.2171h2.4342v1.2171zm-2.6371-1.2171h2.4342v1.2171h-2.3328v-0.10137c0-0.20289-3.8e-4 -0.50716-0.10175-0.71005zm-16.228 0h0.2028v0.20287c0-0.10147-0.10177-0.10147-0.2028-0.20287m0.40568 0h2.4342v1.2171h-1.3185c-0.40564-0.20277-0.71038-0.50713-1.116-0.81142zm2.6371 1.2171v-1.2171h2.4342v1.2171zm2.6371 0v-1.2171h2.4342v1.2171zm2.637-1.2171h2.4342v0.40564c-0.1014 0.20289-0.10177 0.50716-0.10177 0.71042l3.8e-4 0.101h-2.3328v-1.2171zm19.779-1.5214h0.30379c-0.10159 0.20289-0.20318 0.30474-0.30476 0.40576l9.65e-4 -0.40576zm-2.6373 0h2.3325v0.60853c-0.20315 0.30436-0.40629 0.50761-0.60853 0.71001h-1.724zm-2.6374 1.3185v-1.3185h2.4342v1.3185zm-2.637 0v-1.3185h2.4342v1.3185zm-2.6371 0v-1.3185h2.4342v1.3185zm-2.6371-1.3185h2.4342v1.3185h-1.3185c-0.30428-0.50713-0.71038-0.81141-1.1161-1.1156l3.8e-4 -0.20289zm-16.33 0h0.30425v0.40576c-0.10137-0.10147-0.20323-0.20287-0.30425-0.40576m0.60863 0h2.3327v1.3185h-1.7242c-0.20288-0.20288-0.40614-0.40527-0.60901-0.70952l4.56e-4 -0.60902zm2.5356 1.3185v-1.3185h2.4342v1.3185zm2.6371 0v-1.3185h2.4342v1.3185zm2.6371 0v-1.3185h2.4342v1.3185zm2.637-1.3185h2.4342v0.20289c-0.40566 0.30424-0.81178 0.60852-1.1161 1.1156h-1.3182zm19.677-1.4199h0.20221c0 0.1014-0.10159 0.1014-0.20318 0.20288l9.72e-4 -0.20288zm-2.5357 0h2.3325v0.50713c-0.10156 0.2028-0.30474 0.50716-0.50789 0.70993h-1.8246zm-2.6375 1.2172v-1.2172h2.3328v1.2172zm-2.6371 0v-1.2172h2.4342v1.2172zm-2.637 0v-1.2172h2.4342v1.2172zm-2.6371 0v-1.2172h2.4342v1.2172zm-2.6371 0v-1.2172h2.4342v1.2172zm-16.127-1.2172h0.10148v0.20288c0-0.10148-0.10188-0.10148-0.10148-0.20288m2.9413 1.2172v-1.2172h2.4342v1.2172zm2.6371 0v-1.2172h2.4342v1.2172zm2.6371 0v-1.2172h2.4342v1.2172zm2.637 0v-1.2172h2.4342v1.2172zm2.6371 0v-1.2172h2.4342v1.2172zm-13.084-1.2172h2.3327v1.2171h-1.8256c-0.20288-0.20277-0.40614-0.50713-0.50761-0.70993z" style="fill-rule:evenodd;fill:#d8201f"/><path d="m0.3415 0.30347v5.9927l29.705 20.024 9.6477 0.0498v-0.0997c-0.0091-0.0114-0.01729-0.024-0.02611-0.0356v-0.39635l0.02611-2.511c-0.91327 1.2167-2.1289 1.2167-2.9406 0.70963-0.71011-0.50713-1.1141-1.114-1.0134-2.0268-0.10159 0-0.10255-1e-3 -0.20411-0.10206l-0.09968-0.10205c-0.8117 0.40611-1.5223 0.30493-2.2333-0.20174-0.91232-0.6086-1.3172-1.9289-0.20174-3.3488 0 0-0.10252-0.10006-0.20411-0.0997-0.10159-0.10185-0.09921-0.10271-0.20174-0.2041-0.91232 1.6232-2.3335 1.724-3.2468 1.1155-0.60758-0.50713-1.012-1.114-0.91137-2.0268-0.10158 0-0.10158-6.9e-4 -0.20411-0.10206 0 0-0.0993-6.8e-4 -0.09968-0.10205-0.8114 0.40613-1.6243 0.30558-2.2333-0.0997-0.91277-0.60865-1.317-1.9294-0.20174-3.4509-0.10147 0-0.20136-0.0997-0.20174-0.0997-0.10148-0.10139-0.20373-0.10311-0.20411-0.2041-0.91277 1.6223-2.3311 1.7236-3.2444 1.1155-0.71-0.40613-1.0154-1.1158-1.0158-1.9272 0-0.10099-0.10168-0.10006-0.10205-0.0997-0.10148-0.10178-0.09988-0.10206-0.20174-0.10206-0.71 0.40604-1.52 0.20353-2.1289-0.20173-0.9128-0.60891-1.4208-1.9274-0.20411-3.4485-0.10139 0-0.20194-6.8e-4 -0.30379-0.10205 0 0-0.10225-0.10309-0.20411-0.20411-0.91281 1.7242-2.2291 1.724-3.1423 1.1155-0.71-0.40573-1.1168-1.1161-1.0158-1.9272 0 0-0.0993-0.0997-0.09968-0.0997-0.10148 0-0.10225-0.10206-0.20411-0.10206-0.8114 0.40575-1.5206 0.30305-2.231-0.20411-0.91289-0.60852-1.3187-1.9269-0.10206-3.3464-0.1014-0.10178-0.20191-0.10026-0.30379-0.20173-0.10137 0-0.10222-0.10244-0.20411-0.10206-0.91277 1.6224-2.3311 1.724-3.2444 1.1155-0.60853-0.50675-1.0147-1.1164-0.91374-2.0292-0.1014 0-0.09985-0.0997-0.20174-0.0997 0 0-0.10168-0.10244-0.10206-0.10206-0.81141 0.40527-1.5206 0.30304-2.231-0.2041-0.50715-0.30426-0.80988-0.81132-0.91137-1.5213h-0.30616z" style="fill-rule:evenodd;fill:#41b444;stroke-width:.15189;stroke:#000"/><path d="m3.6381 0.30347c0.2314 0.47096 0.95734 0.40379 1.3504 0.13054 0.74881-0.33667 0.17567-0.29689-0.30854-0.28243-0.28646 0.0837-1.0166-0.17792-1.0419 0.15189zm3.0901-0.12341c-0.73135-4.9e-4 -1.2533 0.85673-0.89238 1.5023 0.29854 0.69386 1.2951 0.91214 1.8227 0.35601 0.69834-0.70367 0.0087-1.9307-0.93036-1.8583zm4.5568 1.125c-0.55118 0.0293-0.98097 0.61101-1.03 1.0656-0.45561-0.66961-1.6096-0.60274-1.9295 0.16376-0.44674 0.89583 0.73584 1.9343 1.5712 1.4003 0.3362-0.1716 0.54529-0.56124 0.53875-0.91849 0.17544 0.27636 0.48058 0.46578 0.81169 0.47942-0.81686 0.28102-0.92923 1.5649-0.1519 1.9604 0.66298 0.42219 1.6429-0.0963 1.6424-0.89238 0.07335-0.57499-0.44882-1.0856-0.96833-1.1345 0.57489-0.14179 0.8276-0.78903 0.63843-1.3196-0.13291-0.48823-0.6017-0.86834-1.1226-0.80457zm2.7531 3.8448c-0.9078 0.0338-1.2616 1.3469-0.58147 1.9011 0.53669 0.5344 1.4759 0.21369 1.7231-0.45569 0.2687-0.52045-0.06155-1.1513-0.59334-1.3314-0.1684-0.0857-0.35874-0.12766-0.54825-0.11392zm4.5118 1.1202c-0.54328 0.0381-0.88136 0.59872-0.88764 1.1036-0.32455-0.60408-1.1929-0.7624-1.7017-0.28955-0.78826 0.59125-0.17369 2.1433 0.84254 1.9224 0.53331-0.0747 1.003-0.59664 1.0134-1.0775 0.15885 0.29395 0.54975 0.48982 0.81644 0.51502-0.75151 0.17937-1.0234 1.2298-0.44856 1.7492 0.42853 0.50386 1.3644 0.51507 1.6471-0.14477 0.40484-0.50903 0.20688-1.3464-0.42483-1.564-0.12527-0.0808-0.51294-0.065-0.1875-0.14714 0.70543-0.2838 0.82418-1.3266 0.2136-1.7729-0.24812-0.20359-0.5557-0.33631-0.88289-0.2943zm2.9762 3.8235c-0.76318-0.015-1.3734 0.82895-1.0395 1.5356 0.26721 0.77304 1.4729 0.89907 1.8631 0.16139 0.53388-0.64932 0.08589-1.8094-0.82356-1.697zm4.4287 1.1416c-0.54272 0.0142-0.98674 0.54919-0.99681 1.0372-0.36144-0.69497-1.4865-0.69082-1.8227 0.0237-0.47202 0.5929-0.06776 1.688 0.74761 1.6471 0.61907 0.069 1.2218-0.45025 1.2365-1.0609 0.14049 0.31298 0.55318 0.48077 0.80932 0.52689-0.61404 0.16718-0.93302 0.92024-0.59809 1.4715 0.24715 0.59717 1.0267 0.82331 1.5545 0.44382 0.58097-0.29925 0.69226-1.1017 0.28243-1.5902-0.1592-0.24227-0.42412-0.3815-0.70963-0.39398 0.82299-0.27883 0.93317-1.5944 0.12816-1.9651-0.19596-0.0976-0.41141-0.15367-0.63131-0.14002zm2.8267 3.7594c-0.86823 0.0236-1.4317 1.2057-0.79982 1.8488 0.57362 0.70169 2.0186 0.28615 1.9272-0.6859 0.0016-0.60775-0.48276-1.2109-1.1273-1.163zm4.5568 1.189c-0.5551 0.0314-1.0874 0.50064-1.0656 1.0775-0.38325-0.80174-1.7215-0.69101-1.9604 0.16851-0.41203 0.9569 0.96235 1.9068 1.7254 1.2365 0.23206-0.23102 0.39332-0.55235 0.37974-0.88527 0.16646 0.28523 0.48239 0.49388 0.77846 0.57673-0.68159 0.36442-0.85763 1.4186-0.22784 1.9129 0.70939 0.48182 1.882-0.10819 1.78-1.011-0.02421-0.47353-0.37682-0.91266-0.85678-0.99681 0.88644-0.38306 0.71582-1.9427-0.24208-2.0696-0.1017-0.018-0.20801-0.0184-0.31091-0.01zm2.6558 3.7784c-0.93226 0.0908-1.2113 1.5296-0.40822 1.9936 0.70528 0.5213 1.8616-0.13844 1.6803-1.0277-0.08406-0.57796-0.69736-1.0302-1.2721-0.96595zm2.5798 1.7207c-0.58788 0.0106-1.0801 0.55747-0.94697 1.1511 0.04472 0.76435 0.94334 1.2913 1.6186 0.89713 0.71651-0.33166 0.69206-1.4022 0.0712-1.8132-0.20528-0.17196-0.4775-0.25353-0.74286-0.23496z" style="fill-rule:evenodd;fill:#41b444;stroke-width:.15189;stroke:#000"/><path d="m0.34245 8.3169v-2.0286l2.9413 2.0286z" style="fill:none"/><path d="m0.34245 13.591v-2.6371h6.897l3.8542 2.6371z" style="fill:none"/><path d="m0.34245 18.865v-2.6371h14.605l3.9556 2.6371z" style="fill:none"/><path d="m7.2394 0.30424h20.387v2.7386h-15.417 0.10099c0.30465-0.50716 0.1014-1.2172-0.30425-1.5214-0.50675-0.30427-1.1157-0.20287-1.5214 0.30426-0.20239 0.40575-0.20288 0.8114 0 1.2172h3.79e-4 -0.1014c0-0.30436-0.10186-0.70963-0.40613-0.91289-0.50664-0.40564-1.2171-0.20287-1.5213 0.20326-0.1011 0.30387-0.20287 0.50712-0.20287 0.70963h-1.6224c-0.1014-0.20288-0.10186-0.50676-0.10186-0.81141 0.40614 0.20277 0.91289 0 1.2171-0.40575 0.30465-0.40566 0.20288-1.1157-0.30425-1.4199-0.10102 0-0.10148-0.101-0.2025-0.10149z" style="fill:none"/><path d="m10.485 5.6798h2.7386c-0.20288 0.40576-0.10188 0.91327 0.10099 1.2175-0.70963 0.40528-1.42 0.30426-2.0285-0.20325-0.40528-0.20288-0.60853-0.60853-0.81103-1.0143z" style="fill:none"/><path d="m15.049 5.6798h12.577v2.6371h-8.4184c0.10148-0.1014 0.30388-0.20288 0.40538-0.40576 0.30463-0.40565 0.20288-1.1157-0.30428-1.4199-0.50675-0.30428-1.1157-0.2024-1.42 0.30425-0.3038 0.30428-0.30417 0.8114 0 1.2175-0.10103 0.10102-0.1014 0.2025-0.2028 0.30427 0.20325-0.50753 0-1.0146-0.40573-1.3189-0.50667-0.30425-1.1157-0.101-1.4199 0.30428-0.2025 0.30424-0.30428 0.71038-0.1014 1.0146l-1.7239-3.8e-4c-0.20277-0.30428-0.20314-0.71004-0.20314-1.1153 0.40602 0.20249 0.91277 0 1.217-0.40614 0.20325-0.30425 0.20288-0.8114 3.79e-4 -1.1157z" style="fill:none"/><path d="m22.555 10.954h5.0713v2.6371h-0.71001v-0.10148c-0.40564-0.20288-0.91317-0.20288-1.2174 0.10148h-0.1011c0.10148-0.10148 0.20248-0.20287 0.20248-0.30436 0.40614 0.10149 0.9128 0 1.1157-0.40564 0.30465-0.50716 0.20287-1.1153-0.30428-1.4199-0.40526-0.30429-1.1156-0.20251-1.4199 0.30462-0.30387 0.30389-0.20285 0.81102 0 1.1153-0.10099 0.10137-0.10148 0.20284-0.20285 0.30424 0.20325-0.40564 0-0.9128-0.40576-1.217-0.50667-0.30435-1.1157-0.2025-1.4199 0.30425-0.3039 0.40567-0.20287 0.9128 0.1014 1.3186h-1.7238c-0.30424-0.40576-0.40602-0.8114-0.40602-1.42 0.50751 0.10148 1.0142 0 1.2171-0.40527 0.20325-0.30462 0.20287-0.50713 0.20325-0.81178z" style="fill:none"/><path d="m31.784 18.865h-0.10159c0-0.10137 0.10159-0.10137 0.20221-0.10137-0.10062 0-0.10062 0-0.10062 0.10137" style="fill-rule:evenodd;fill:#f9d100"/><path d="m31.784 18.865h-0.10159c0-0.10137 0.10159-0.10137 0.20221-0.10137-0.10062 0-0.10062 0-0.10062 0.10137z" style="fill:none"/><path d="m29.857 16.228h9.838v2.6371h-5.172c0-0.20277-0.20318-0.30426-0.30474-0.40528-0.40538-0.30462-0.91326-0.20325-1.3186 0.10102 0.10159-0.1014 0.20315-0.20287 0.20315-0.30427 0.50696 0.1014 0.91232 0 1.1155-0.40528 0.40633-0.5075 0.20221-1.1156-0.20317-1.42-0.50694-0.40603-1.2171-0.20326-1.5218 0.20249-0.2022 0.40565-0.2022 0.91327 0 1.2175 9.49e-4 0.10103-0.10061 0.20243-0.10061 0.30429 0.10156-0.40614 0-0.91282-0.40633-1.2176-0.50599-0.30425-1.217-0.20239-1.5208 0.30473-0.30379 0.50668-0.20317 1.1152 0.3038 1.4196 0.10253 0.1014 0.20314 0.1014 0.30473 0.20277h-1.8256c-0.50697-0.50713-0.81171-1.0138-0.71012-1.7242 0.40632 0.1014 0.91232 0 1.2171-0.40527 0.10159-0.20325 0.10159-0.40613 0.10159-0.50761z" style="fill:none"/><path d="m39.695 21.401v1.0142c-0.10062-0.2028-0.20315-0.40567-0.40535-0.50666-0.50697-0.30474-1.1164-0.20327-1.5218 0.30424-0.3038 0.40531-0.10156 1.1157 0.30379 1.4199 0.40632 0.2025 0.8117 0.2025 1.1164 0-0.20318 0.2025-0.40633 0.30427-0.60853 0.40537h-1.5208c-0.10159 0-0.20318-0.1011-0.30474-0.1011-0.60852-0.40602-1.0148-1.0147-0.91329-1.9275 0.40633 0.20287 0.91329 0 1.2171-0.40528 9.42e-4 -4.5e-4 0.10156-0.10185 0.10156-0.20325z" style="fill:none"/><path d="m3.081 0.30424h0.50713c0 0.10149 0.10102 0.10149 0.10102 0.10149 0.40613 0.30427 1.0143 0.30427 1.3185-0.101l1.4203-4.6e-4c-0.20288 0.10148-0.40614 0.20288-0.50751 0.40576-0.20239 0.40564-0.20288 0.91277 0.10137 1.2171-0.70952 0.40574-1.4199 0.30435-2.0285-0.1014-0.50675-0.30426-0.8114-0.91279-0.91239-1.5214z" style="fill:none"/><path d="m36.247 39.556h-1.6224v-1.5214h-2.8404v1.5214h-2.4341v-1.3185h0.10064c0.10253-0.20288 0.20315-0.2024 0.20315-0.40565 0.10159-0.40575 0.10159-0.70963 0-1.1157 9.42e-4 -0.71 0-1.1158-0.10159-1.8253-0.30376-0.10177-0.50694-0.10177-0.71009-0.30427-0.40538-0.20326-0.50696-0.40613-0.81113-0.60853l-0.2024-1.1161c-0.10148-0.50705-0.10186-0.70992-0.30473-1.2167 4.55e-4 -3.8e-4 0-0.10178-0.1014-0.10178-0.30388-0.10149-0.40573-0.10149-0.71001-0.20289-0.40526-0.20287-0.60852-0.40572-0.9128-0.71-0.30387-0.40564-0.71-0.60853-1.1157-0.8114-0.30387-0.20288-0.50712-0.30426-0.91288-0.50713h-0.60853c-0.81103-0.1014-1.3185-0.30428-1.9271-0.50668-0.10102-4.5e-4 -0.20287 0-0.20287 0.10103-0.10103 0.10137-0.1014 0.20326-0.20288 0.30425-0.10102 0.30427-0.2028 0.40614-0.40564 0.60853 0.10175-0.20288 0.20285-0.30426 0.30424-0.50713 0.10186-0.1014 0.1014-0.20239 0.1014-0.40565-0.30389-0.20288-0.40564-0.40538-0.70993-0.60864-0.30387-0.20277-0.50713-0.40526-0.8114-0.60815-0.1011-0.10177-0.10148 0-0.20287 0-0.30388-3.8e-4 -0.50713-0.10177-0.8114 0-0.40528-3.8e-4 -0.7099 0-1.1157 0-0.10102-3.8e-4 -0.1014 0.10111-0.20288 0.10111-0.40526 0.1014-0.60852 0.20277-1.0142 0.40602-0.60825 0.3039-1.1158 0.40538-1.1158 0.40538 0.10186 0.30428 0.30426 0.81178 0.20288 1.2171-0.10102 0.10147-0.1014 0.20287-0.20288 0.30427 0.10186-0.30427 0.20288-0.40567 0.10148-0.70955 3.8e-4 -0.30473-0.20288-0.60853-0.40575-0.81178-0.20248 0-0.50713 0-0.81141 0.1014-0.10099 0.10137-0.20285 0.20288-0.20285 0.40614-0.50667-4.6e-4 -0.9128 0.10099-1.2171 0.10099-0.20248 0.1014-0.20285 0.40614-0.30425 0.71038-0.2025 0.20242-0.30427 0.20242-0.50713 0.4053-0.2025 0.20285-0.40576 0.30425-0.50716 0.40565 3.79e-4 0-0.30425 0.10185-0.40576 0.10185-0.10099-3.8e-4 -0.10137 0.10103-0.10137 0.20251 3.79e-4 0 0 0.30424 0 0.30424 3.79e-4 0.1014 0.20288 0.20289 0.30425 0.40569 0.10188 0.10147 0.30427 0.30424 0.30427 0.30424 0.10186-0.1014 0.20288-0.10102 0.30426-0.10102 0.20336-3.8e-4 0.30436 0 0.50715 0 4.55e-4 0.10102-0.1014 0.10102-0.20279 0.10102h-0.20286c-0.10102 0 0 0.30436 0 0.30436 0.20323 0.1014 0.30425 0.1014 0.50713 0.1014h0.60853c0.20325 0.20288 0.40575 0.30426 0.71 0.30426 0.20326 0.10139 0.40564 0.20287 0.70993 0.30427h0.50713c0.10188 0 0 0.20287 0 0.20287-0.30388 0.20289-0.50713 0.20289-0.81141 0.40603-0.30387 0.2025-0.7099 0.30436-0.8114 0.50676-0.20239 0.30427-0.40564 0.50715-0.60853 0.8114-0.30386 0.40576-0.50713 0.60853-0.81138 1.0147-0.2025 0.10102 0 0.70963 0.20286 0.70963h2.1303c0.10138 0 0.2024-0.1011 0.30388-0.30436 0.10178-0.1014 0.1014-0.10099 0.1014-0.30425 0.40614-0.20288 0.60853-0.30428 0.91278-0.50715 0.40613-0.30426 0.60863-0.50667 0.91288-0.8113 3.79e-4 -0.20288-0.10137-0.30436-0.10137-0.50675-0.1011-0.10188-0.10148-0.20325-0.10148-0.40614 3.8e-4 0.20289 0.10148 0.30426 0.10148 0.50713 0.10178 0.20288 0.10137 0.20326 0.30425 0.40576 3.8e-4 0.50704 0 0.70993 0 1.2174 3.8e-4 0.40527 0 0.60853 0 1.1157-0.40536 0.101-0.71001 0.30425-0.81141 0.30425-0.1011 0.1011-0.10148 0.30436-0.20285 0.40538 3.8e-4 0.10137 0.10137 0.30425 0.20285 0.40565h0.50742v1.3185h-2.4341v-1.5214h-2.84v1.5214h-2.4342v-1.5214h-2.84v1.5214h-1.6228c-2.1299-3.1442-3.4489-6.998-3.4489-11.157l3.73e-4 -1.7243h39.353v1.7243c0 4.1584-1.3186 8.0126-3.448 11.157" style="fill-rule:evenodd;fill:#fff"/><path d="m26.51 38.035v1.5214h-2.4342v-1.3185h0.2024c0.20325-0.20288 0.40575-0.50667 0.50715-0.70993 0.30474-0.40575 0.50713-0.6086 0.71001-1.0143 3.8e-4 -0.30425-0.10148-0.50675-0.10148-0.811 4.56e-4 -0.40614-0.1014-0.60855-0.2028-1.0147 0.10178 0 0.1014-0.10102 0.1014-0.10102 0.10186-0.10186 0.1014-0.20326 0.20288-0.40613-0.10103 0.20287-0.10148 0.20287-0.10148 0.30427-0.10102 0.10148-0.1014 0.20288-0.1014 0.30436l3.8e-4 0.1014v0.10137c0.20288 0.30427 0.3039 0.40613 0.60815 0.60853 0.40614 0.30427 0.71 0.50715 1.2172 0.91288 0.10178 0 0.20288 0.10178 0.20288 0.20288 0.10174 0.1014 0.10137 0.40605 0.10137 0.60853h-0.60853c-0.20248 0.1014-0.30426 0.20287-0.30426 0.40613-0.1011 0.10102-0.10148 0.20239 3.8e-4 0.30379" style="fill-rule:evenodd;fill:#fff"/><path d="m21.338 38.035h-0.10148v1.5214h-2.4342v-1.5214h-0.50716c0.1015-0.30427 0.2025-0.70992 0.4053-1.1156 0.10185-0.50716 0.20285-0.70993 0.30436-1.2167 3.8e-4 -0.10188 0-0.10188 0-0.20325-0.1011-0.40576-0.20288-0.50716-0.30436-0.81141-0.10102-0.30428-0.2028-0.50715-0.2028-0.91281 0.10178 0.30429 0.1014 0.40566 0.1014 0.50754 0.10186 0.10099 0.1014 0.20239 0.20288 0.20239 3.8e-4 0 0.10137 0 0.10137 0.10186 0.20325-3.8e-4 0.50716 0.2025 0.81141 0.40527 0.40613 0.1014 0.50715 0.10186 0.91288 0.20287 0.40605 0 0.60856 0.1014 1.0142 0.1014 4.56e-4 0.20289 0.10148 0.20289 0.10148 0.40614 0.20325 0.30388 0.30424 0.50675 0.50713 0.70952 0.10177 0 0.1014 0.10148 0.1014 0.20326 3.79e-4 0.1011 0 0.2025 0 0.3039-0.10103 0.10148-0.1014 0.20325-0.1014 0.30425-0.101 0-0.30426 0-0.50713 0.10148-0.3039 0.1014-0.50713 0.30427-0.50713 0.60852 3.8e-4 0 0.10137 0.10188 0.10186 0.1014" style="fill-rule:evenodd;fill:#fff"/><path d="m2.7888 2.8131 1.008 2.3471 2.556 0.0581 0.04112 9.8e-4 0.01604 0.0373 1.0145 2.3623 2.5347 0.0576 0.04113 9.4e-4 0.01603 0.0373 1.0206 2.3766 2.5581 0.0581 0.04112 9.4e-4 0.01603 0.0373 1.0081 2.3475 2.5412 0.0578 0.04113 9.7e-4 1.0301 2.3987 2.5793 0.0586 0.04101 9.4e-4 0.01603 0.0373 1.0144 2.3621 2.5496 0.058 0.04101 8.7e-4 0.01603 0.0373 1.0145 2.362 2.5496 0.058 0.04112 8.4e-4 0.01593 0.0373 1.0082 2.3469 2.5708 0.0584 0.04083 9.4e-4 0.01612 0.0373 1.0139 2.3618 2.5651 0.0582 0.04082 1e-3 0.01612 0.0372 0.61708 1.4374h-0.08258l-0.5867-1.3659-0.01615-0.0377-0.04082-4.5e-4 -2.5651-0.058-1.0139-2.362-0.01614-0.0372-0.04083-8.2e-4 -2.5708-0.0587-1.0079-2.347-0.01622-0.0372-0.04063-8.7e-4 -2.5497-0.058-1.0145-2.3616-0.01623-0.0376-0.04071-8.7e-4 -2.5497-0.058-1.0145-2.3623-0.01584-0.0368-0.0412-2e-3 -2.5639-0.0579-0.02164-0.0146-1.0081-2.3473-0.01584-0.0373-0.04131-9.4e-4 -2.534-0.0575-0.01-7e-3 -1.0052-2.3412-0.01596-0.0372-0.04091-1e-3 -2.5276-0.057-0.04255-0.0288-1.0085-2.349-0.01606-0.0367-0.04158-1e-3 -2.5345-0.0575-1.0143-2.3623-0.01641-0.0375-0.04082-6.8e-4 -2.5519-0.0581-0.0061-4e-3 -1.006-2.3433-0.01625-0.0373-0.04079-7.6e-4 -2.5307-0.0577-0.10388-0.0705-0.0019-4e-3 0.09757 2e-3 2.5908 0.0589 0.04101 9.5e-4 0.01604 0.0373zm30.113 22.2 0.0029 7e-3 -0.01138-7e-3 0.0085 1.5e-4zm2.2016 0.37083 0.41294 0.96121h-0.08258l-0.38259-0.88963-0.01518-0.0375-0.04082-5.3e-4 -1.5208-0.0345-0.01424-3.8e-4 -0.03132-0.0736 0.09776 2e-3 1.5199 0.0346 0.04082 9.4e-4 0.01615 0.0373zm-1.4506 0.12949 0.0076 0.0201-0.03035-0.0206 0.02276 4.5e-4zm-2.1854-2.5878 0.60473 1.4081 0.03891 0.089-0.08352-4.6e-4 -0.0076-0.0166-0.60376-1.4085-0.01615-0.0369-0.04176-1e-3 -1.5199-0.0349-0.01423-3e-4 -0.03133-0.0732 0.09777 2e-3 1.5199 0.0346 0.04177 9.4e-4 0.0152 0.0372zm-1.4506 0.12979 0.0028 7e-3 -0.01044-7e-3 0.0076 2.3e-4zm-2.1848-2.5732 0.60417 1.408 0.03891 0.0889-0.0522-3.8e-4 -0.04368-0.0302-0.59932-1.3945-0.01566-0.0374-0.0411-9.6e-4 -1.5059-0.0342-0.04045-0.0275-0.01967-0.0469 0.0975 2e-3 1.5203 0.0346 0.04112 9.7e-4 0.01603 0.0373zm-3.6212-2.4582 0.60466 1.408 0.03827 0.089-0.05223-3.8e-4 -0.04327-0.0292-0.59943-1.3959-0.01566-0.0369-0.04109-1e-3 -1.5072-0.0341-0.03894-0.0265-0.02002-0.0476 0.09757 2e-3 1.5203 0.0345 0.04101 9.4e-4 0.01603 0.0373zm-3.6211-2.4582 0.60466 1.408 0.03827 0.0889-0.05307-1.5e-4 -0.04217-0.0287-0.60008-1.3962-0.01536-0.0377-0.0412-8.6e-4 -1.5076-0.0342-0.03805-0.0258-0.02042-0.0482 0.0976 2e-3 1.5203 0.0346 0.0412 8.5e-4 0.01593 0.0374zm-3.6506-2.4583 0.64288 1.4969-0.0241-8e-5 -0.08305-0.0563-0.58738-1.3688-0.01622-0.0375-0.04101-7.6e-4 -1.4777-0.0335-0.07947-0.0539-0.0088-0.0211 0.09758 2e-3 1.5203 0.0346 0.04113 9.5e-4 0.01593 0.0372zm-3.6064-2.4435 0.60463 1.4081 0.03827 0.089-0.01784-1.6e-4 -0.09153-0.0621-0.58546-1.3631-0.01623-0.0376-0.04072-7.6e-4 -1.4715-0.0333-0.08818-0.0599-0.0064-0.0151 0.09753 2e-3 1.5204 0.0346 0.04101 9.4e-4 0.01603 0.0372zm-3.6358-2.4728 0.60465 1.408 0.03824 0.089-0.02573-1.5e-4 -0.08079-0.0548-0.5881-1.3705-0.01625-0.0373-0.04101-1e-3 -1.4795-0.0334-0.07699-0.0523-0.0095-0.0225 0.0976 2e-3 1.5203 0.0345 0.04109 9.4e-4 0.01604 0.0373zm-3.6065-2.4582 0.60465 1.408 0.03827 0.0889-0.0412-1.5e-4 -0.05869-0.0398-0.59494-1.3851-0.01622-0.0375-0.04082-7.6e-4 -1.4951-0.034-0.05506-0.0374-0.01577-0.0372 0.09757 2e-3 1.5203 0.0346 0.04112 8.7e-4 0.01593 0.0374zm-3.6211-2.4436 0.60466 1.4081 0.03827 0.089-0.02024-1.5e-4 -0.08837-0.06-0.58622-1.3651-0.01615-0.0374-0.04101-8.5e-4 -1.4736-0.0333-0.08496-0.0577-0.0074-0.0173 0.0976 2e-3 1.5203 0.0345 0.0411 1e-3 0.01604 0.0372z" style="fill:#292a2b"/><path d="m2.5607 0.27566 0.08198 0.38224c0.16976 0.79157 0.6508 1.4126 1.39 1.7946 0.32098 0.16585 0.50775 0.20818 0.93295 0.21145 0.2924 2e-3 0.6386-0.0199 0.76935-0.0492 0.23171-0.0519 0.23899-0.0453 0.28822 0.26259 0.12899 0.80666 0.72409 1.5688 1.4951 1.9148 0.40589 0.18215 0.53658 0.20398 1.0811 0.18056 0.4312-0.0186 0.71469-0.0743 0.93318-0.18341l0.31383-0.15677 0.03449 0.57464c0.05964 0.99365 0.59834 1.7381 1.601 2.2124 0.4978 0.2355 1.2014 0.30239 1.5973 0.15186 0.17672-0.0672 0.18953-0.0537 0.23467 0.24735 0.22794 1.52 1.8128 2.5008 3.2828 2.0315 0.28632-0.0914 0.55475-0.18127 0.59652-0.19973 0.04674-0.0206 0.06597 0.11043 0.05 0.34081-0.03416 0.49285 0.17102 1.1814 0.4695 1.5754 0.48882 0.64541 1.5116 1.0646 2.4131 0.98897l0.51022-0.0428 0.09252 0.39377c0.17494 0.74453 0.43508 1.1008 1.1315 1.5495 0.809 0.52131 1.5201 0.61529 2.2824 0.30165l0.41771-0.17187 0.01131 0.45847c0.024 0.97276 0.54948 1.7761 1.4515 2.2191 0.38735 0.19021 0.51815 0.21405 1.1745 0.21405h0.73857l0.15049 0.49365c0.24956 0.81862 0.68556 1.2883 1.5622 1.6827 0.51453 0.23153 1.3656 0.2339 1.8797 5e-3l0.36075-0.16047v0.44857c0 0.96673 0.62076 1.9058 1.5294 2.3135 0.43876 0.1969 0.5222 0.20903 1.1717 0.17028l0.69928-0.0417 0.04982 0.31153c0.07335 0.45871 0.48227 1.1702 0.84192 1.4649 0.54312 0.44505 0.98064 0.60181 1.6698 0.59831 0.45835-2e-3 0.69856-0.0441 0.97799-0.17025 0.20372-0.0919 0.37745-0.16716 0.38606-0.16716 0.0086 0 0.01566 0.25228 0.01566 0.56062 0 0.46038 0.03634 0.63013 0.20326 0.94935l0.20326 0.38872" style="fill:none;stroke-width:.15189;stroke:#000"/><path d="m0.38343 5.0987 31.138 21.215" style="color:#000000;fill:none;stroke-width:.15189;stroke:#000"/><path d="m0.3328 0.69373 37.974 25.822" style="color:#000000;fill:none;stroke-width:.15189;stroke:#000"/><path d="m35.13 25.291 0.38312 1.1386h-1.5929l-0.44921-1.1705zm0.30866-0.45456 0.60083 1.6275-2.6216 0.0105-0.6336-1.689zm-3.9385-2.0102 0.64156 1.5302-1.6385 7e-3 -0.66204-1.5687zm0.30866-0.45455 1.0265 2.4484-2.6216 0.0105-1.0593-2.51zm-3.9385-2.0102 0.64156 1.5302-1.6385 7e-3 -0.66204-1.5687zm0.30866-0.45455 1.0265 2.4484-2.6216 0.0105-1.0593-2.51zm-3.9385-2.0102 0.64156 1.5303-1.6385 7e-3 -0.66204-1.5687zm0.30866-0.45455 1.0265 2.4484-2.6216 0.0105-1.0593-2.51zm-3.9385-2.0102 0.64156 1.5303-1.6385 7e-3 -0.66204-1.5687zm0.30866-0.45455 1.0265 2.4484-2.6216 0.0105-1.0593-2.51zm-3.9385-2.0102 0.64156 1.5302-1.6385 7e-3 -0.66204-1.5687zm0.30866-0.45456 1.0265 2.4484-2.6216 0.0105-1.0593-2.51zm-3.9385-2.0102 0.64156 1.5302-1.6385 7e-3 -0.66204-1.5687zm0.30866-0.45455 1.0265 2.4484-2.6216 0.0105-1.0593-2.51zm-3.9385-2.0102 0.64156 1.5303-1.6385 7e-3 -0.66204-1.5687zm0.30865-0.45455 1.0265 2.4484-2.6216 0.0105-1.0593-2.51zm-3.9385-2.0102 0.64156 1.5303-1.6385 7e-3 -0.66204-1.5687zm0.30866-0.45455 1.0265 2.4484-2.6216 0.0105-1.0593-2.51zm-3.9385-2.0102 0.64156 1.5303-1.6385 7e-3 -0.66204-1.5687zm0.30866-0.45455 1.0265 2.4484-2.6216 0.0105-1.0593-2.51z" style="color:#000000;fill:none;stroke-width:.15189;stroke:#000"/></svg>
