<svg width="29.782" height="35.918" enable-background="new 0 0 354.1 422.9" version="1.1" viewBox="0 0 29.782 35.918" xmlns="http://www.w3.org/2000/svg" xmlns:xlink="http://www.w3.org/1999/xlink"><path id="Schildflaeche" d="m0.11807 0.1409v8.3691c0 2.7897-0.20289 5.7316 0.40014 7.9859 0.56921 2.136 1.8091 3.8267 3.3251 5.0609 0.76083 0.61994 1.6062 1.1441 2.6488 1.5329 1.0257 0.38324 2.1923 0.68757 3.528 0.6763 2.6601-0.0226 4.6777-1.0032 6.1768-2.2092 1.5217-1.223 2.739-2.9588 3.2913-5.1004 0.58048-2.2656 0.40014-5.1849 0.40014-7.9859v-8.386h-19.753z" fill="#fff" stroke="#000" stroke-miterlimit="10" stroke-width=".16907"/><path d="m19.387 10.02c-0.9919-1.454-1.8936-2.9982-2.6826-4.5875l-0.08454-0.1747 0.16907 0.10144c0.14653 0.0902 0.28742 0.20289 0.43396 0.32687 0.34942 0.28743 0.74956 0.6143 1.285 0.6143h0.01127c0.27615 0 0.50722-0.0845 0.68756-0.25361-0.98062-0.68192-1.7584-1.3695-2.305-2.0402l-0.11272-0.14089 0.17471 0.0507c0.28179 0.0789 0.57485 0.12399 0.84537 0.12399 0.04509 0 0.09581 0 0.14089-6e-3 0.32688-0.0169 0.6143-0.10144 0.82846-0.2367 0.24234-0.15217 0.38887-0.36633 0.45086-0.63121-0.76646-0.0902-1.4935-0.18034-2.1191-0.36069-0.02818-6e-3 -0.05636-0.0169-0.08454-0.0225h-0.0056c-0.16907-0.0451-0.34378-0.0958-0.47904-0.20289l-0.09581-0.0789 0.12399-0.0225c0.43959-0.0733 0.88482-0.17471 1.2061-0.38324 0.32688-0.21979 0.49595-0.54103 0.50722-0.98062-0.61994 0.16907-1.3131 0.21979-2.0458 0.25361h-0.03945c-0.10708 6e-3 -0.21416 0.0113-0.32124 0.0169h-0.02818l-0.12399 6e-3c-0.12962 6e-3 -0.25925 6e-3 -0.38887 0.0113-0.29306 6e-3 -0.59739 0.0113-0.86227 0.0564-0.28742 0.0451-0.49031 0.13526-0.62557 0.27052-0.17471 0.16907-0.28742 0.46213-0.3156 0.79464-0.03382 0.4565 0.16344 0.71011 0.37196 0.93554 0.02818 0.0282 0.08454 0.0733 0.14089 0.12963 0.16344 0.14089 0.27052 0.2367 0.29306 0.29869 0.06763 0.2198-0.01691 0.56921-0.05636 0.71011-0.03382 0.11835-0.08454 0.20852-0.13526 0.2987-0.03945 0.0733-0.0789 0.14089-0.10144 0.21416l-0.0056 0.0113-0.01127 0.0113c-0.16907 0.18598-0.44523 0.26488-0.70447 0.33814-0.0789 0.0226-0.15217 0.0451-0.22543 0.0676-0.02818 0.10145-0.01691 0.18035 0.03381 0.22544 0.03945 0.0394 0.11272 0.062 0.20289 0.062 0.0789 0 0.17471-0.0169 0.25361-0.0507 0.17471-0.0676 0.49595-0.30997 0.61994-0.49595 0.20852-0.30433 0.29306-0.72702 0.26488-1.285l-0.0056-0.0845 0.0789 0.0282c0.01691 6e-3 0.03382 0.0113 0.05072 0.0169 0.07327 0.0225 0.15217 0.0451 0.19162 0.11835l0.0056 0.0113v0.0113c0.03381 0.91299-0.23107 1.6738-0.76083 2.2092-0.50722 0.51849-1.2342 0.78901-2.1021 0.78901h-0.08454-0.02254l-0.01691-0.0169c-0.05072-0.0451-0.08454-0.0958-0.11835-0.14089-0.04509-0.062-0.09017-0.12399-0.16907-0.18598-0.04509-0.0338-0.10144-0.0564-0.1578-0.0789-0.14653-0.062-0.3156-0.12963-0.25361-0.41705v-0.0113l0.0056-6e-3c0.06763-0.10708 0.17471-0.16907 0.32124-0.17471-0.20289-0.34378-0.0056-0.88482 0.1578-1.1102l0.02818-0.0338 0.03945 0.0169 0.02818 0.0113c0.08454 0.0338 0.19162 0.0789 0.28179 0.0789 0.03945 0 0.0789-0.0113 0.10708-0.0282-0.01127-0.0394-0.03381-0.0733-0.06199-0.11835-0.03945-0.062-0.08454-0.12962-0.09581-0.22543-0.03381-0.23671 0.05072-0.48468 0.12962-0.72702 0.06199-0.19725 0.12962-0.40014 0.12962-0.58612v-0.0395l0.03945-0.0113c0.05636-0.0169 0.12399-0.0225 0.18598-0.0225 0.02254 0 0.04509 0 0.06763-6e-3 -0.2367-0.19725-0.3156-0.56358-0.40014-0.94117-0.09581-0.44523-0.19725-0.90173-0.56921-1.0426l-0.0789-0.0282 0.05636-0.062c0.01691-0.0169 0.03381-0.0338 0.05636-0.0507-0.06763 0.0113-0.13526 0.0169-0.20852 0.0169-0.20852 0-0.43396-0.0394-0.64812-0.0789-0.2198-0.0395-0.42832-0.0733-0.6143-0.0733-0.19725 0-0.34378 0.0395-0.46213 0.12399-0.028179 0.0225-0.045086 0.0451-0.067629 0.0789-0.028179 0.0451-0.061993 0.10145-0.14089 0.14653l-0.011272 6e-3v0.0113c0.039451 0.24797 0.2367 0.3156 0.48468 0.40014 0.084537 0.0282 0.17471 0.0564 0.26488 0.10144 0.09581 0.0451 0.18598 0.10708 0.26488 0.18035l0.1578 0.15216-0.21416-0.0564c-0.05072-0.0113-0.09581-0.0225-0.14653-0.0282 0.03945 0.0113 0.07327 0.0225 0.11272 0.0394 0.22543 0.10708 0.34942 0.30997 0.32688 0.5523l-0.0056 0.0564c0.01127 6e-3 0.02818 6e-3 0.03945 0.0113l0.04509 0.0113v0.0511 0.0113 0.062l-0.06199-6e-3c-0.09017-6e-3 -0.18034-0.0113-0.27052-0.0169 0.07327 0.0113 0.14089 0.0282 0.20289 0.0507l0.03945 0.0169-0.0056 0.0451c-0.02254 0.18035-0.1578 0.23671-0.28179 0.25925 0.03945 0 0.08454 6e-3 0.12399 6e-3h0.05636l0.11835-6e-3 -0.06763 0.0958c-0.10708 0.14653-0.24797 0.21979-0.41705 0.21979h-0.0056c-0.03382 0-0.07327 0-0.10708-6e-3 0.07326 0.0282 0.1409 0.0564 0.20289 0.0958l0.01127 6e-3 0.0056 0.0113c0.05636 0.10145 0.07326 0.19726 0.03945 0.28179-0.07326 0.20853-0.36633 0.32124-0.58612 0.40578-0.028179 0.0113-0.050722 0.0169-0.073265 0.0282l-0.03945 0.0169-0.022543 0.0113c-0.33251 0.13525-0.57485 0.23106-0.71574 0.43959 0.073265-0.0451 0.1578-0.0845 0.25361-0.11272 0.095808-0.0282 0.18598-0.0451 0.27615-0.0451 0.12399 0 0.2367 0.0282 0.33251 0.0902l0.050722 0.0338-0.033815 0.0507c-0.073265 0.10708-0.1578 0.19162-0.24234 0.27616-0.067629 0.0676-0.14089 0.14089-0.19725 0.21979-0.061994 0.0789-0.11272 0.1578-0.1578 0.23107-0.12962 0.19725-0.24234 0.3776-0.47341 0.46777 0.078901 0.0169 0.15217 0.0394 0.20289 0.0958l0.033815 0.0338-0.028179 0.0394c-0.039451 0.0507-0.045086 0.14653-0.050722 0.2367-0.011272 0.10708-0.016907 0.21416-0.073265 0.29307l-0.022543 0.0338-0.03945-0.0113c-0.050722-0.0169-0.10144-0.0225-0.14653-0.0225-0.16344 0-0.28742 0.0958-0.40014 0.19161-0.10708 0.0845-0.21416 0.17471-0.34942 0.18035-0.045086 0-0.095808 6e-3 -0.14089 6e-3 -0.75519 0-1.4878-0.29869-2.0063-0.81719-0.55794-0.55794-0.83973-1.3188-0.79464-2.1416v-0.0225l0.016907-0.0169c0.056358-0.0451 0.12962-0.10708 0.25361-0.10708h0.033815l0.056358 6e-3 -0.00564 0.0564c-0.050722 0.50159 0.045086 0.93554 0.27615 1.2512 0.23107 0.30996 0.58612 0.50158 1.0313 0.55794 0.078901-0.062 0.14653-0.19726 0.084537-0.32688-0.11272-0.062-0.2367-0.0789-0.36069-0.0958-0.12962-0.0169-0.25361-0.0338-0.36069-0.10144-0.18034-0.10708-0.33815-0.30433-0.43959-0.56358-0.10144-0.25361-0.15217-0.5523-0.13526-0.84536v-0.0226l0.011272-0.0169c0.078901-0.0845 0.1578-0.16343 0.2367-0.23106 0.26488-0.24234 0.47341-0.43959 0.50158-0.87355 0.022543-0.36069-0.061993-0.67629-0.25925-0.90172-0.19725-0.23107-0.50722-0.37196-0.89045-0.40578-0.22543-0.0169-0.47341-0.0282-0.78901-0.0282-0.20852 0-0.41705 6e-3 -0.61994 6e-3 -0.20289 6e-3 -0.41141 6e-3 -0.6143 6e-3 -0.50158 0-1.0764-0.0169-1.578-0.15216 0.00564 0.18598 0.03945 0.34942 0.10708 0.49031 0.067629 0.14653 0.16344 0.27052 0.29306 0.3776 0.22543 0.18034 0.54103 0.30433 0.97499 0.36632 0.028179 6e-3 0.050722 6e-3 0.084537 6e-3 0.10144 6e-3 0.20852 0.0169 0.29306 0.0958l0.061993 0.062-0.078901 0.0338c-0.69884 0.28179-1.4935 0.48467-2.4403 0.61993 0.033815 0.29306 0.16907 0.50722 0.38887 0.65375 0.19725 0.12962 0.46777 0.19162 0.78337 0.19162h0.016907c0.29306 0 0.60866-0.062 0.913-0.16907l0.16907-0.0564-0.10144 0.14653c-0.35505 0.50158-0.80592 0.91863-1.2455 1.3244-0.28742 0.26488-0.58612 0.54103-0.851 0.83973 0.15217 0.11835 0.32124 0.18034 0.49595 0.19161h0.061994c0.15217 0 0.3156-0.0395 0.48468-0.11271 0.36069-0.1578 0.71011-0.45087 0.98626-0.68757 0.073265-0.062 0.14089-0.12398 0.20852-0.17471l0.18034-0.14653-0.090172 0.21416c-0.43395 1.0032-0.94681 1.9556-1.4371 2.8799-0.32124 0.59176-0.64811 1.2061-0.95245 1.8316 0.033815 6e-3 0.067629 6e-3 0.10144 6e-3 0.15217 0 0.30997-0.0451 0.47341-0.13526 0.19725-0.10708 0.37196-0.26488 0.52413-0.40014 0.47904-0.45086 0.87918-1.0201 1.268-1.578 0.24234-0.34378 0.46777-0.67066 0.70447-0.95808l0.090172 0.0676c-0.34378 0.5523-0.58049 1.1215-0.74392 1.7865-0.12962 0.52976-0.20289 1.0821-0.28742 1.6738-0.028179 0.19161-0.050722 0.38886-0.084537 0.58612-0.14089 0.95808-0.47904 1.7922-0.80592 2.6037-0.18034 0.43959-0.34378 0.86227-0.48468 1.2906h0.045086c0.28742 0 0.49031-0.0789 0.60866-0.14653 0.23107-0.12962 0.45086-0.35506 0.65939-0.67066 0.19725-0.30997 0.33815-0.64248 0.42268-0.86227l0.011271-0.0282 0.033815-6e-3c0.033815-6e-3 0.050722-0.0507 0.067629-0.11271 0.00564-0.0225 0.011272-0.0451 0.022543-0.062 0.34942-0.78337 0.61994-1.64 0.87355-2.4741v-6e-3c0.067629-0.21979 0.13526-0.43959 0.20852-0.65938 0.016907-0.062 0.03945-0.12399 0.056358-0.18599 0.10144-0.32123 0.20289-0.65375 0.34378-0.94681l0.10144-0.21979 0.00564 0.24234c0.03945 2.3839-0.25925 4.5593-0.55794 6.3853 0.96372-0.10708 1.3244-0.86227 1.6118-1.6344 0.2198-0.58612 0.37196-1.1441 0.46777-1.7133 0.10144-0.62557 0.13526-1.2568 0.10144-1.9274l-0.022541-0.36633 0.12962 0.34378c0.11835 0.31561 0.15217 0.73829 0.19162 1.223 0.00564 0.10708 0.016907 0.21416 0.028179 0.32124 0.033815 0.37196 0.095808 1.0595 0.37196 1.2004 0.033815 0.0169 0.073265 0.0282 0.11272 0.0282 0.061993 0 0.13526-0.0225 0.2198-0.0676 0.27615-0.44523 0.30433-1.1666 0.33251-1.8598 0.016907-0.42268 0.033815-0.86227 0.10708-1.2399l0.050722-0.27616 0.056358 0.27052c0.061994 0.28743 0.084537 0.5354 0.11272 0.77774 0.022543 0.21416 0.045086 0.42832 0.090173 0.66502 0.011271 0.0507 0.022543 0.10145 0.028179 0.15217 0.061994 0.29306 0.11835 0.59739 0.10144 0.91299-0.03945 0.58612-0.23107 1.099-0.58049 1.5724-0.028179 0.0394-0.061994 0.0789-0.095808 0.11835-0.16907 0.20288-0.33815 0.40577-0.20289 0.7101l0.59176 0.33815 0.011272 6e-3 0.00564 0.0113c0.039451 0.062 0.14089 0.0845 0.24234 0.10144 0.022543 6e-3 0.045086 0.0113 0.067629 0.0169 0.12962-0.11835 0.2198-0.25925 0.27615-0.41705 0.045086-0.12399 0.061993-0.26488 0.078901-0.40577 0.022543-0.16908 0.045086-0.33251 0.10708-0.46214 0.028179-0.0564 0.11835-0.18034 0.22543-0.18034h0.011272c0.20289 0.0169 0.2198 0.41141 0.23107 0.73265v0.0564c0.016907 0.40014-0.045086 0.95244-0.19162 1.1892-0.17471 0.27051-0.52413 0.29869-0.86791 0.32687-0.20852 0.0169-0.40578 0.0282-0.55231 0.10144-0.13526 0.0676-0.18034 0.2198-0.23107 0.3776-0.016907 0.0564-0.033815 0.11272-0.056358 0.16344l-0.011272 0.0282c-0.045086 0.11835-0.084537 0.22543-0.16907 0.34378 0.016907 0.0113 0.03945 0.0113 0.056358 0.0113 0.056358 0 0.12399-0.0338 0.19162-0.0676 0.073265-0.0394 0.15217-0.0789 0.24234-0.0902h0.045086c0.061993 0 0.12962 0.0169 0.19162 0.0282 0.056358 0.0113 0.10708 0.0225 0.1578 0.0282h0.061993c0.33815 0 0.67066-0.12399 0.87355-0.19162l0.011272-6e-3 0.10708-0.0394-0.033815 0.10708c-0.12962 0.40014-0.23107 0.71574-0.49031 0.96935-0.40578 0.40577-1.0708 0.48468-1.7189 0.56358-0.56358 0.0676-1.1497 0.14089-1.5217 0.43395-0.21416 0.16907-0.3945 0.46214-0.48468 0.78337-0.10144 0.36633-0.073265 0.74393 0.073265 1.0652 0.13526 0.2367 0.38887 0.44522 0.67629 0.5523 0.14653 0.0564 0.29306 0.0789 0.43959 0.0789 0.11272 0 0.22543-0.0169 0.32688-0.0451-0.55794-0.10145-0.95808-0.44523-1.0708-0.93554-0.073265-0.32688 0.00564-0.66502 0.2198-0.94681 0.22543-0.29306 0.56358-0.47904 0.89045-0.49595l0.084537-6e-3 -0.033815 0.0789c-0.073265 0.18598-0.22543 0.32124-0.38887 0.47341-0.25925 0.2367-0.50722 0.4565-0.43395 0.85664 0.016907 0.0902 0.045086 0.15216 0.084537 0.16344h0.016907c0.084537 0 0.2198-0.13526 0.3156-0.23671 0.033815-0.0394 0.073265-0.0733 0.10144-0.10144 0.16344-0.1409 0.3156-0.25925 0.44523-0.35506 0.29306-0.20852 0.63121-0.36632 0.95808-0.51849 0.3945-0.18598 0.7721-0.36069 1.0595-0.6143 0.28179-0.24234 0.51286-0.56921 0.68193-0.82282l0.14089-0.21416-0.039451 0.25361c-0.090172 0.56358-0.20289 0.95808-0.35505 1.2342-0.18034 0.33814-0.55231 0.42831-0.94117 0.52412-0.22543 0.0564-0.46213 0.11272-0.65375 0.22543-0.12962 0.15217 0 0.35506 0.061993 0.43959l0.028179 0.0338-0.028179 0.0338c-0.18598 0.23107-0.4565 0.3776-0.72138 0.51286 0.23107-0.0282 0.4565-0.0733 0.66502-0.14089 0.26488-0.0845 0.51849-0.19726 0.74956-0.34942 0.40578-0.25361 0.76647-0.60303 1.099-1.0708 0.022543-0.0338 0.050722-0.0733 0.073265-0.11272 0.056358-0.0958 0.11272-0.19161 0.21416-0.26488l0.095808-0.0676-0.00564 0.11835c-0.011272 0.19162-0.016907 0.38324-0.022543 0.56358-0.011272 0.45086-0.022543 0.87355-0.14653 1.3188-0.056358 0.21416-0.18034 0.3776-0.29306 0.5354-0.11272 0.15217-0.21416 0.29306-0.2367 0.45086-0.022543 0.15217 0.011272 0.28179 0.090172 0.36069 0.061994 0.062 0.14653 0.0958 0.24797 0.0958h0.045086l0.028179-6e-3 0.016907 0.0225c0.10144 0.12399 0.18598 0.27052 0.27052 0.40578 0.067629 0.11271 0.13526 0.23106 0.21416 0.33251 0.12962-0.25361 0.27052-0.49032 0.41705-0.72138l0.01127-0.0113 0.02254-0.0338 0.03945 0.0113c0.03382 6e-3 0.06199 0.0113 0.09017 0.0113 0.08454 0 0.1578-0.0338 0.2198-0.10144 0.11272-0.11835 0.15217-0.32687 0.10144-0.49031-0.02254-0.0789-0.09581-0.16344-0.16907-0.24798-0.05636-0.0676-0.11272-0.14089-0.1578-0.21979-0.3156-0.52976-0.43395-1.33-0.32124-2.1416l0.01691-0.14089 0.08454 0.11835c0.34942 0.49031 0.69884 0.96372 1.1666 1.3131 0.46777 0.35505 0.9919 0.54103 1.6006 0.56357-0.29306-0.14653-0.52976-0.30996-0.71574-0.51285l-0.03945-0.0394 0.03945-0.0394c0.06763-0.062 0.09581-0.12963 0.08454-0.19726-0.01127-0.10144-0.09581-0.21979-0.23107-0.30433-0.12962-0.0845-0.33251-0.14653-0.52413-0.20289-0.20289-0.062-0.41705-0.12398-0.55794-0.21979-0.54103-0.35505-0.64248-0.95808-0.75519-1.5949v-6e-3l-0.03945-0.2367 0.14089 0.19725c0.06763 0.0902 0.12962 0.18598 0.19162 0.29306 0.13526 0.21979 0.27615 0.44523 0.4734 0.60866 0.25925 0.2198 0.63684 0.40578 0.99753 0.58049l0.05072 0.0225c0.49595 0.24234 1.0595 0.51286 1.4709 0.88482 0.04509 0.0451 0.09017 0.0958 0.1409 0.15216 0.08454 0.0958 0.17471 0.20853 0.25361 0.2198h0.02254c0.03381 0 0.06199-0.0113 0.09017-0.0395 0.07327-0.0733 0.10144-0.2367 0.08454-0.34378-0.03382-0.22543-0.2198-0.38887-0.40014-0.55231-0.16344-0.14653-0.32124-0.28742-0.37196-0.46777l-0.02254-0.0845 0.08454 0.0169c0.56358 0.10145 1.1553 0.5354 1.1272 1.2511-0.02818 0.66503-0.56358 1.0201-1.1497 1.099 0.12962 0.0395 0.25361 0.062 0.38323 0.062h0.06199c0.19725-0.0113 0.38323-0.0676 0.55231-0.17471 0.18034-0.11835 0.33251-0.28742 0.43396-0.49031 0.10708-0.20852 0.1578-0.45086 0.15217-0.6932-0.01691-0.51285-0.20289-0.89045-0.57485-1.1497-0.35505-0.24797-0.8341-0.36632-1.2962-0.45649-0.15217-0.0282-0.30997-0.0507-0.46213-0.0733-0.35505-0.0507-0.72138-0.10708-1.037-0.24234-0.24797-0.10708-0.4734-0.30997-0.66502-0.60866-0.13526-0.20853-0.30433-0.52977-0.33815-0.88482l-0.01127-0.12399 0.10144 0.0676c0.04509 0.0282 0.0789 0.062 0.11272 0.0958 0.05072 0.0507 0.09581 0.0902 0.16907 0.11835 0.09581 0.0338 0.20852 0.0507 0.36633 0.0507h0.01127v-0.0169l0.0056-0.0564v0.0733c0.11272 0 0.23107-0.0113 0.34942-0.0169 0.11835-0.0113 0.24234-0.0169 0.35505-0.0169 0.09017 0 0.16907 6e-3 0.2367 0.0169 0.06199 0.0113 0.11272 0.0394 0.1578 0.062 0.05072 0.0282 0.08454 0.0451 0.13526 0.0451h0.02254c0.10708-0.0113 0.12962-0.0394 0.13526-0.0451 0.01691-0.0338-0.04509-0.11835-0.09017-0.18034-0.02254-0.0338-0.04509-0.0676-0.06763-0.0958-0.03381-0.062-0.06199-0.1409-0.08454-0.2198-0.02818-0.0789-0.05072-0.1578-0.0789-0.19725-0.11835-0.18034-0.35505-0.18034-0.62557-0.18598-0.21416-6e-3 -0.42832-6e-3 -0.63684-0.0902-0.22543-0.0902-0.3945-0.29306-0.50158-0.60867-0.10708-0.30433-0.12399-0.62557-0.12399-0.78337 0-0.0902 0.03945-0.62557 0.20289-0.76647 0.02818-0.0282 0.06199-0.0394 0.10144-0.0394h0.01691c0.11272 0.0169 0.16907 0.18035 0.20852 0.33815l0.0056 0.0113c0.02818 0.11272 0.03945 0.24798 0.05072 0.38887 0.03382 0.40578 0.07326 0.67629 0.3156 0.71011 0.01127-6e-3 0.01691-0.0169 0.02818-0.0507s0.02254-0.0676 0.05072-0.0958l0.01691-0.0169 0.02818 6e-3h0.04509c0.10708 0 0.15217-0.0507 0.19162-0.13526l0.01127-0.0169 0.01691-6e-3 0.62557-0.28742c-0.0789-0.15217-0.10708-0.32124-0.13526-0.49595-0.02818-0.15216-0.05072-0.30997-0.11272-0.45086-0.03382-0.0789-0.09581-0.15217-0.15217-0.22543-0.02818-0.0338-0.05636-0.0676-0.0789-0.0958-0.25925-0.34942-0.41141-0.86227-0.44523-1.4935-0.02818-0.54104 0.03382-1.1666 0.17471-1.7584l0.05636-0.24234 0.05072 0.24797c0.06763 0.31561 0.09581 0.67066 0.12399 1.0144 0.03382 0.36069 0.06199 0.73829 0.13526 1.0652 0.0789 0.34942 0.19725 0.60303 0.36633 0.77211h0.05636c0.11835 0 0.21416-0.0225 0.2987-0.062 0.12962-0.37196 0.1578-0.85664 0.18034-1.3244 0.02818-0.50158 0.05636-1.0257 0.20852-1.4202l0.12962-0.32688-0.02254 0.35506c-0.06199 1.1046 0.09581 2.1078 0.51286 3.2518 0.1578 0.43396 0.36069 0.9299 0.67066 1.3131 0.3156 0.38323 0.6932 0.59739 1.161 0.64811-0.28179-1.3188-0.51849-2.7672-0.68193-4.1817-0.03381-0.28179-0.03945-0.58049-0.04509-0.86791v-6e-3c0-0.1578-0.0056-0.3156-0.01127-0.47341-0.0056-0.0845-0.01127-0.16907-0.01691-0.24233-0.01691-0.20289-0.03382-0.40578 0-0.60303l0.03382-0.20289 0.07326 0.19162c0.20289 0.50722 0.38323 1.0426 0.57485 1.6118v6e-3c0.43396 1.2737 0.87918 2.5868 1.5498 3.5562 0.01691 0.0282 0.03382 0.0507 0.05636 0.0789 0.12962 0.18598 0.27052 0.3945 0.3945 0.49595 0.2198 0.18598 0.59739 0.2367 0.95245 0.27052-0.15217-0.42269-0.32688-0.8341-0.50722-1.2737-0.34942-0.82846-0.71574-1.6795-0.90172-2.6488-0.03945-0.20853-0.0789-0.41142-0.11272-0.6143-0.10144-0.57485-0.20289-1.1159-0.34378-1.6231-0.16907-0.6143-0.4734-1.1159-0.76647-1.6006l-0.01127-0.0225c-0.02818-0.0451-0.05636-0.0958-0.08454-0.14653l0.09017-0.0676c0.22543 0.24797 0.44523 0.54103 0.67629 0.84536 0.17471 0.23107 0.34942 0.46777 0.54104 0.69884 0.17471 0.21416 0.37196 0.42832 0.56358 0.63121l0.09017 0.0958 0.02254 0.0282c0.18598 0.20288 0.40014 0.42831 0.64811 0.58048 0.18034 0.10708 0.35505 0.1578 0.5354 0.1578 0.09581-0.0338 0.18598-0.0451 0.27615-0.0733zm-1.7527-7.8619zm-6.143-0.34942zm-1.4653-0.0113zm0.52976-0.12399c-0.04509 0.0451-0.11835 0.0676-0.20289 0.0676-0.03382 0-0.09017-6e-3 -0.13526-0.0282-0.06763-0.0338-0.10144-0.10144-0.08454-0.18034l0.01127-0.0676 0.06199 0.0225c0.03945 0.0113 0.05636 0.0394 0.07327 0.062 0.01691 0.0169 0.02254 0.0226 0.02818 0.0282 0.02254-6e-3 0.03945-0.0169 0.06199-0.0338 0.03945-0.0225 0.08454-0.0564 0.1578-0.0564h0.03381l0.01691 0.0338c0.03382 0.0507 0.02254 0.10708-0.02254 0.15217zm-6.9038 4.5143zm0.050722-0.11272zm1.4653 1.2962zm2.5079 7.3378zm-0.33815 2.2938zm0.60866-0.56922zm-0.14653 3.7309zm2.3332-15.425zm3.1391 4.1648zm0.76647-1.1441zm1.5724-2.136zm0.20852-2.2092zm0.03381-1.6175zm0.19725-0.14653z" fill="#e64625" stroke-width=".056358"/><path id="Kontur_2_" d="m11.531 1.223c0.76083 0.27615 0.4565 1.7133 1.0877 2.0571-0.09017 0.0507-0.26488 0.0169-0.36633 0.0564 0.0056 0.42268-0.3156 0.88481-0.25925 1.3075 0.02254 0.1578 0.14653 0.2367 0.16344 0.36632-0.13526 0.12962-0.34942 0.0225-0.49595-0.0394-0.18598 0.25361-0.37196 0.851-0.09017 1.1384-0.19725-0.0225-0.32124 0.0394-0.38887 0.14653-0.07326 0.34378 0.20852 0.30997 0.38887 0.43959 0.15217 0.11271 0.18598 0.23107 0.29306 0.33251 1.7978 0.0338 2.9475-1.1046 2.8855-2.9419-0.03945-0.0733-0.14089-0.0789-0.2198-0.11271 0.02254 0.49595-0.03381 0.96935-0.27615 1.3244-0.14089 0.20852-0.4734 0.44522-0.64248 0.51285-0.26488 0.10708-0.68756 0.0789-0.55231-0.33251 0.33251-0.11271 0.72138-0.17471 0.93554-0.40578 0.05072-0.1747 0.18034-0.30433 0.2367-0.51285 0.04509-0.16344 0.11272-0.48468 0.05636-0.68193-0.02254-0.0789-0.34378-0.32124-0.42268-0.40578-0.20852-0.21979-0.42268-0.49031-0.38887-0.97499 0.02254-0.3156 0.13526-0.63684 0.33251-0.82845 0.38887-0.38324 1.1948-0.31561 1.9105-0.34942 0.95808-0.0394 1.8373-0.0676 2.6094-0.29306 0.0056 1.0933-0.83973 1.33-1.764 1.4878 0.14653 0.12399 0.36069 0.16344 0.55231 0.2198 0.64248 0.18598 1.3977 0.27615 2.1698 0.36632-0.16344 0.93554-1.3131 1.1441-2.3558 0.84537 0.63121 0.7721 1.4878 1.4766 2.3558 2.0796-0.18598 0.19162-0.43959 0.30997-0.7721 0.30997-0.78337 6e-3 -1.2624-0.64812-1.764-0.95808 0.81155 1.6456 1.7189 3.1955 2.7221 4.6552-0.72702 0.24797-1.223-0.30997-1.6006-0.71575-0.22543-0.24233-0.4565-0.48467-0.65939-0.73828-0.44523-0.54104-0.8341-1.1272-1.2342-1.5611 0.32688 0.54667 0.68756 1.099 0.88482 1.8034 0.19162 0.69883 0.30997 1.4709 0.46213 2.243 0.28742 1.4878 0.9919 2.7052 1.4371 3.9901-0.38323-0.0394-0.81719-0.0845-1.0652-0.29306-0.15217-0.12399-0.32124-0.38887-0.46213-0.58612-0.96935-1.3977-1.4709-3.5111-2.136-5.1849-0.04509 0.26488 0.0056 0.55794 0.01691 0.84537 0.02254 0.44522 0.0056 0.91299 0.05636 1.3413 0.17471 1.4935 0.41705 2.9588 0.69884 4.2494-1.1328-0.0845-1.6006-1.0539-1.95-2.0063-0.36069-0.98626-0.59176-2.0232-0.51286-3.2913-0.30433 0.75519-0.12399 1.9951-0.40578 2.7784-0.10708 0.0564-0.24234 0.0845-0.42268 0.0733-0.59739-0.59176-0.4565-1.9218-0.65939-2.9081-0.27615 1.1272-0.28742 2.4854 0.25925 3.218 0.0789 0.10144 0.18598 0.21416 0.2367 0.33251 0.14089 0.32124 0.10144 0.70447 0.27615 0.9919 0.48468 0.80028 0.95808 1.4709 1.3977 2.2261 0.33251 0.12398 0.55794-0.0394 0.64248-0.27616 0.03382-0.0958 0.0056-0.22543 0.05636-0.30996 0.06763-0.12399 0.30433-0.13526 0.47904-0.23671 0.07327-0.0451 0.1578-0.16907 0.2367-0.20288 0.19725-0.0789 0.46777 6e-3 0.64248 0.0733-0.15217 0.0394-0.36069 0.0169-0.42268 0.14653 0.02254 0.13526 0.1578 0.0902 0.16344 0.20289 0.02254 0.24797-0.43395 0.27615-0.60866 0.18598-0.08454 0.0338-0.0056 0.1578 0 0.2198-0.10144 0.11271-0.29306 0.13525-0.29306 0.34941 0.2198 0.10145 0.4565-6e-3 0.68193-0.11271 0.09017-0.0394 0.19725-0.13526 0.29306-0.12962 0.10144 0.0113 0.2198 0.18034 0.33251 0.21979 0.41141 0.14653 1.0539-0.11835 1.1215 0.33251-0.11835-0.062-0.32688-0.0507-0.36632 0.0733 0.0056 0.13526 0.12962 0.13526 0.11272 0.25924-0.02254 0.12963-0.19162 0.18598-0.34942 0.12963-0.12962-0.0451-0.25361-0.33252-0.46213-0.33252-0.16344 0.1409-0.42832 0.0958-0.49595-0.0902-0.27052 0.0564-0.51286 0.13526-0.75519 0.2198 0.10708 0.3156 0.58612 0.42268 0.88482 0.60866 0.05636 0.0958 0.0789 0.22543 0.09017 0.36633-0.12962 0-0.10144-0.15781-0.2367-0.14653-0.13526 0.062-0.0789 0.23106-0.20289 0.27615-0.24234 0.0958-0.36069-0.4565-0.62557-0.47904-0.01691-0.0733-0.06763-0.10145-0.09017-0.16344-0.18034-0.0958-0.3776-0.17471-0.5354-0.29306-0.41705-0.0902-0.73265-0.0902-1.1779-0.0169-0.10144 0.1409-0.59739 0.28743-0.65938 0.0394-0.03945-0.15216 0.0789-0.17471 0.12962-0.29306-0.02254-0.19725-0.23107-0.0169-0.25924-0.0564 0.19162-0.48468 0.81719 0.0507 1.268-0.18599-0.48468-0.83409-1.0539-1.5836-1.6738-2.2825-0.05072 0.10145-0.11835 0.18599-0.29306 0.16344-0.04509 0.0451-0.03381 0.15217-0.11272 0.16344-0.43396-0.0507-0.32688-0.73829-0.42268-1.1384-0.01691-0.0676-0.06763-0.29869-0.16344-0.30996-0.19725-0.0282-0.25925 0.62557-0.25925 0.75519 0 0.44523 0.11835 1.1553 0.58612 1.3413 0.46777 0.18599 1.0539-0.0507 1.285 0.29306 0.06199 0.0902 0.10144 0.30997 0.16344 0.42269 0.08454 0.14653 0.33251 0.36632-0.01691 0.40577-0.13526 0.0169-0.19725-0.0845-0.33251-0.11271-0.3776-0.0733-0.95808 0.10144-1.3244-0.0394-0.13526-0.0507-0.18034-0.14653-0.29306-0.2198 0.02818 0.31561 0.18034 0.62557 0.33251 0.86228 0.15217 0.23106 0.36069 0.46777 0.64248 0.58612 0.44523 0.18598 0.9919 0.21416 1.4878 0.30997 0.99753 0.19161 1.8767 0.49594 1.9105 1.6569 0.02818 0.9919-0.86227 1.7527-1.8598 1.268 0.68756-0.0169 1.2962-0.38323 1.3244-1.0652 0.02818-0.65938-0.51286-1.0933-1.0877-1.1948 0.09581 0.37196 0.69884 0.57485 0.7721 1.0313 0.02818 0.16344-0.05072 0.47341-0.25924 0.43959-0.14653-0.0225-0.28742-0.26488-0.42268-0.38886-0.41705-0.3776-0.9919-0.65375-1.5104-0.90173-0.38323-0.18598-0.74956-0.36632-1.0088-0.58612-0.29306-0.25361-0.46777-0.63684-0.68193-0.91863 0.11272 0.64248 0.20852 1.2342 0.73829 1.5836 0.27052 0.18035 0.81719 0.24798 1.0877 0.42269 0.19162 0.12962 0.3776 0.37196 0.14653 0.58612 0.24797 0.26488 0.56921 0.45649 0.93554 0.60866-1.6287 0.0394-2.3896-0.94681-3.0715-1.9105-0.11272 0.80592 0.01127 1.6006 0.30997 2.1134 0.10144 0.17471 0.28179 0.33251 0.33251 0.47904 0.10144 0.2987-0.09017 0.73829-0.47904 0.64248-0.16344 0.25924-0.32124 0.52413-0.46213 0.81155-0.20289-0.24797-0.33251-0.56358-0.5354-0.81155-0.2987 0.0282-0.49031-0.18035-0.43959-0.51286 0.050722-0.33814 0.41705-0.58048 0.5354-0.99189 0.16907-0.61994 0.12399-1.2061 0.16344-1.8767-0.12962 0.0902-0.19162 0.24798-0.27615 0.36633-0.59176 0.82846-1.4315 1.5273-2.8123 1.6006 0.33815-0.18035 0.70447-0.33815 0.93554-0.62557-0.10708-0.1409-0.20289-0.35506-0.056358-0.51286 0.51286-0.30433 1.3019-0.21979 1.5837-0.73829 0.17471-0.3156 0.27615-0.76646 0.34942-1.2342-0.17471 0.26488-0.41141 0.59739-0.69884 0.84537-0.54667 0.4734-1.3808 0.68756-2.0232 1.1384-0.12399 0.0902-0.28179 0.20853-0.43959 0.34942-0.1578 0.13526-0.51286 0.62557-0.60866 0.14653-0.12962-0.6932 0.65375-0.90172 0.82846-1.3582-0.60303 0.0225-1.2286 0.67066-1.0652 1.3808 0.12399 0.52413 0.59176 0.87919 1.2342 0.91864-0.67066 0.33814-1.4315-0.0451-1.7076-0.5354-0.33815-0.72702-0.011272-1.5724 0.42268-1.9105 0.80592-0.63121 2.491-0.24798 3.2349-0.9919 0.24797-0.24797 0.34942-0.5523 0.47904-0.95808-0.2198 0.0789-0.59176 0.2198-0.97499 0.20289-0.12962-6e-3 -0.26488-0.0676-0.38887-0.0564-0.21416 0.0282-0.38323 0.26488-0.56921 0.11272 0.10144-0.1409 0.14653-0.26489 0.20289-0.40578 0.084537-0.20852 0.10144-0.47341 0.30997-0.56921 0.3945-0.18598 1.1384 6e-3 1.3977-0.40578 0.14089-0.2198 0.20289-0.76083 0.18598-1.161-0.011272-0.26488-0.016907-0.72138-0.18598-0.73829-0.073265-6e-3 -0.1578 0.0902-0.18598 0.14653-0.11272 0.23671-0.084537 0.58612-0.18598 0.86228-0.067629 0.19725-0.18598 0.34378-0.30997 0.46213-0.13526-0.0338-0.2987-0.0451-0.36633-0.14653-0.60866 0.71574-1.223 1.4258-1.8204 2.1529 0.3776 0.17471 0.9299-0.20289 1.2117 0.0733-0.067629 0.0902-0.20852 0.11272-0.29306 0.18598 0.016907 0.13526 0.14653 0.10145 0.11272 0.23671-0.045086 0.18598-0.47341 0.12398-0.55231-0.0169-0.33815 0.0451-0.59739-0.1409-0.90172-0.0394-0.19162 0.0676-0.2987 0.30433-0.51286 0.33251-0.078901 0.32124-0.51849 0.30997-0.65939 0.56921-0.078901 0.1409-0.016907 0.32688-0.14653 0.46214-0.095808 0.0225-0.17471 0.0733-0.27615 0.0394-0.073265-0.0282-0.039451-0.16908-0.073265-0.23671-0.15217 0.0113-0.18598 0.12963-0.2198 0.25925-0.095808-0.16344-0.039451-0.42832 0.03945-0.56921 0.050722-0.0282 0.10708-0.0507 0.16344-0.0733 0.21416-0.41141 0.80592-0.44522 0.93554-0.93554-0.18034-0.0338-0.3945-0.16907-0.58612-0.12962-0.084537 0.0169-0.10708 0.10144-0.18598 0.11272-0.10144 0.0113-0.15217-0.0845-0.2367-0.0902-0.090172-6e-3 -0.27052 0.0789-0.33251 0.12963-0.095808 0.0789-0.090172 0.24233-0.20289 0.33251-0.11272 0.0564-0.30433 0.0394-0.40578-0.0169-0.073265-0.0845 0.022543-0.22543-0.056358-0.29306-0.095808-0.0789-0.16907 0.0958-0.2198 0.0564-0.011272-0.44523 0.52413-0.36069 0.91863-0.55231 0.10708-0.0507 0.23107-0.19725 0.34942-0.21979 0.32688-0.062 0.65375 0.22543 0.95808 0.25924 0.13526-0.27615-0.19162-0.38887-0.27615-0.56921-0.30997-0.0676-0.50722 0.0113-0.78901-0.0169-0.084537-0.11835 0-0.26488 0.056358-0.34942-0.061994-0.10708-0.22543-0.18034-0.38887-0.12962 0.095808-0.10708 0.2367-0.20852 0.36633-0.20289 0.090172 6e-3 0.16344 0.10144 0.25925 0.14653 0.27615 0.12962 0.67629 0.20289 0.95808 0.27615 0.14089 0.0958 0.17471 0.77211 0.42268 0.77211 0.12399 0 0.42268-0.43959 0.49595-0.5354 0.43959-0.55795 0.90172-1.2455 1.285-1.7471-0.19725-0.41142 0.12399-0.67066 0.29306-0.90173 0.28179-0.38323 0.52413-0.87918 0.56921-1.5442 0.022543-0.35506-0.061994-0.71011-0.12962-1.0483-0.095808-0.50722-0.090172-0.91299-0.20289-1.454-0.19725 1.0032 0.00564 2.4121-0.46213 3.1448-0.64248 0.37196-0.73829-0.63121-0.78901-1.1948-0.056358-0.60866-0.073265-1.1722-0.2198-1.5442 0.078901 1.4202-0.15217 2.5756-0.56921 3.6802-0.29306 0.82283-0.68193 1.5893-1.7133 1.6682 0.33251-1.9951 0.60866-4.1479 0.56921-6.453-0.16907 0.35505-0.28179 0.74956-0.40578 1.1384-0.33815 1.0595-0.64248 2.1529-1.0877 3.1448-0.028179 0.062-0.03945 0.18598-0.12962 0.20289-0.19725 0.54103-0.57485 1.2737-1.1046 1.5611-0.18034 0.10144-0.43395 0.16907-0.75519 0.14653 0.38887-1.268 1.0877-2.4685 1.3075-3.9563 0.11835-0.79464 0.19725-1.5555 0.36633-2.26 0.16907-0.69883 0.42268-1.285 0.7721-1.8373-0.64248 0.7721-1.2117 1.8373-2.0063 2.5756-0.28742 0.26488-0.73265 0.64812-1.2117 0.5354 0.78901-1.6118 1.702-3.1053 2.429-4.7791-0.54103 0.43959-1.4991 1.4597-2.3558 0.75519 0.67629-0.76646 1.5329-1.3638 2.1303-2.2092-0.90736 0.32124-2.1021 0.27052-2.1867-0.7721 0.90736-0.12962 1.7415-0.32688 2.4797-0.62557-0.090172-0.0902-0.2367-0.0733-0.34942-0.0902-0.75519-0.11835-1.4089-0.44522-1.4033-1.3638 1.0426 0.30996 2.4516 0.0902 3.6576 0.18598 0.82282 0.0676 1.2455 0.60866 1.1948 1.3582-0.03945 0.59739-0.42268 0.77774-0.75519 1.1384-0.028179 0.59175 0.20289 1.1497 0.55231 1.3582 0.20289 0.11835 0.50158 0.062 0.73829 0.20289 0.090172 0.16907 0 0.34941-0.11272 0.42268-0.95808-0.10708-1.4935-0.81719-1.3808-1.8767-0.12962-0.0113-0.19162 0.0394-0.25925 0.0902-0.090172 1.7133 1.2624 2.9813 2.8855 2.9081 0.2987-0.0169 0.4565-0.49595 0.91863-0.34942 0.095808-0.12399 0.033815-0.40577 0.12962-0.5354-0.095808-0.10144-0.30997-0.0789-0.46213-0.12962 0.5354-0.0282 0.60866-0.3776 0.88482-0.73829 0.13526-0.17471 0.30997-0.30433 0.43959-0.49595-0.33815-0.21415-0.83973 0.0395-0.97499 0.20289 0.12399-0.40014 0.4565-0.51849 0.90172-0.69883 0.28179-0.11272 0.80592-0.27616 0.58612-0.64248-0.30997-0.18035-0.76647-0.21416-1.1046-0.36633 0.18598-0.43395 1.3977 0.16344 1.454-0.34942-0.26488-0.0958-0.68193-0.0845-0.9919-0.0733-0.37196 0.0169-0.72138 0.062-1.0313 0.14653-0.46777 0.12399-0.81719 0.43959-1.268 0.51285 0.86227-0.50158 1.9049-1.2004 3.3082-0.86227 0.05636-0.52976-0.65375-0.72701-0.95808-0.40578-0.38323-0.30996-1.0539-0.3156-1.1948 0.20289-0.028179 0.0902 0.073265 0.14653 0.03945 0.18598-0.29306-0.19725-0.23107-0.7721 0.016907-0.97499 0.10708-0.0902 0.27052-0.0958 0.40578-0.18598 0.1578-0.10144 0.19725-0.35505 0.47904-0.21979 0.11835-0.062 0.11835-0.1578 0.20289-0.2198 0.58612-0.41704 1.7133 0.33251 2.3163-0.14653 0.03381 0.0394-0.09581 0.0845-0.16344 0.12963-0.06763 0.0563-0.15217 0.12398-0.19162 0.16907zm-2.0627 0.11271c-0.028179 0.15217 0.033815 0.28743 0.20289 0.29306 0.13526-0.37759 0.64811-0.38323 1.0483-0.49594-0.37196-0.11836-1.1722-0.18598-1.2511 0.20288zm1.4202-0.16343c-0.07327 0.0169-0.14653 0.0902-0.2198 0.11271-0.33251 0.0958-0.78337 0.062-0.86227 0.40578 0.12962 0.10708 0.2198 0.11835 0.40578 0.14653 0.45086 0.0676 0.81155 0.40577 1.285 0.43959-0.09017 0.0338-0.23107 0.0225-0.33251 0.0564 0.18598 0.19725 0.3945 0.93554 0.07327 1.2117-0.0056-0.1578 0.09581-0.28743 0.03945-0.43959-0.20852 0.0902-0.26488 0.49595-0.34942 0.7721-0.03945-0.10708-0.01127-0.28179-0.05636-0.38887-0.26488 0.11272-0.22543 0.63684-0.47904 0.69884 0.02818-0.18035 0.1578-0.4565 0.12962-0.56922-0.12962-6e-3 -0.06763 0.18035-0.09017 0.27616-0.14653 0.56921-1.0539 0.36632-1.3244 0.81155 0.33251 0.0225 0.76083-0.0451 1.0313 0.0394-0.51849 0.15217-0.74392 0.60303-1.0088 1.0088 0.16344 0.0226 0.41705-0.0507 0.49595 0.0564-0.27052 0.0507-0.55794 0.0902-0.75519 0.2198 0.18598 0.0451 0.49031-0.0226 0.64248 0.0564-0.12399 0.0845-0.3945 0.0225-0.5354 0.0902-0.073265 0.18598-0.084537 0.43959-0.14653 0.64248-0.32688-0.0338-0.51849 0.0733-0.69884 0.18598-0.10708 0.34941-0.19725 0.6143-0.2198 0.99189-0.10708 1.6964 0.6143 3.0433 0.51286 4.5255-0.028179 0.41141-0.18598 0.68757-0.34942 0.95808-0.23107 0.37197-0.63121 0.68193-0.55231 1.2117 0.23107 0.10708 0.27052-0.12963 0.43959-0.11272 0.26488 0.0282 0.03945 0.37196 0.20289 0.5354 0.10144 0 0.033815-0.17471 0.14653-0.16344 0.061994 0.0282 0.011272 0.16344 0.073265 0.18598 0.51286-0.14653 0.11272-1.5667 0.82846-1.4878 0.00564 0.0225 0.022543 0.0394 0.056358 0.0394 0.16907 0.66502 0.25925 1.5217-0.039451 2.0232-0.16344 0.28179-0.55231 0.39451-0.91863 0.42269-0.14089 0.0113-0.32688-0.0338-0.49595 0.0169-0.26488 0.0789-0.2367 0.37196-0.33251 0.58612-0.045086 0.10708-0.15217 0.1409-0.14653 0.27616 0.23107 0.0282 0.38887-0.18598 0.64248-0.18598 0.073265 0 0.14089 0.0451 0.20289 0.0564 0.64248 0.0902 1.0426-0.27615 1.1384-0.88481-0.28179 0.2367-0.77774 0.68756-1.3808 0.43959-0.078901 0.0395-0.095808 0.14089-0.20289 0.14653 0.061994-0.11835 0.12399-0.23107 0.2198-0.30997 0.81155 0.18598 1.3019-0.28179 1.5611-0.81155 0.00564 0.38323-0.073265 0.64811-0.14653 0.93554-0.20852 0.78337-0.54667 1.5836-1.285 1.8373-0.45086 0.1578-0.94681 0.10708-1.3977 0.18598-0.37196 0.0676-0.81719 0.1409-1.1215 0.33251-0.32124 0.20289-0.58612 0.6763-0.62557 1.0877-0.090172 0.87918 0.46213 1.4089 1.285 1.3977-0.18034-0.16907-0.42832-0.25925-0.60866-0.46213-0.26488-0.2987-0.3776-0.82283-0.18598-1.2342 0.20852-0.43959 0.72138-0.72701 1.285-0.78901-0.084537 0.46777-0.71011 0.72138-0.88482 1.0652-0.050722 0.10145-0.12399 0.43396 0.03945 0.5354 0.88482-1.1666 2.8855-1.2342 3.4773-2.6657 0.10144-0.24234 0.12399-0.52413 0.2367-0.81155-0.00564 0.32124 0.011272 0.54667-0.016907 0.82846-0.061994 0.60866-0.30433 1.4935-0.75519 1.7471-0.2987 0.16907-1.2511 0.11271-1.268 0.49595-0.011271 0.19725 0.16344 0.17471 0.29306 0.2367-0.16344 0.2367-0.43395 0.36632-0.64248 0.55231 1.3019-0.30434 2.0627-1.1497 2.5925-2.2261 0.050722 1.0595 0.011271 2.1078-0.34942 2.7784-0.078901 0.14653-0.22543 0.25925-0.27615 0.40578-0.12962 0.37196 0.12962 0.59739 0.51286 0.49595 0.00564 0.20852 0.067629 0.3156 0.14653 0.43959 0.045086 0.0733 0.11272 0.17471 0.18598 0.20288 0.13526-0.10707 0.27052-0.37759 0.30997-0.64247 0.16907 0.0394 0.33815 6e-3 0.46213-0.0564 0.09017-0.11835 0.08454-0.40014 0.01691-0.5354-0.11272-0.21416-0.25361-0.34942-0.34942-0.5354-0.3156-0.60303-0.25925-1.5386-0.25925-2.4459 0.56358 1.0764 1.268 2.0176 2.6826 2.243-0.21416-0.2367-0.57485-0.33251-0.71574-0.64248 0.09581-6e-3 0.23107 0.0226 0.27615-0.0394 0.02254-0.14653-0.06199-0.23106-0.14653-0.29306-0.45086-0.33251-1.0933-0.29869-1.4146-0.71574-0.41705-0.54104-0.60303-1.4709-0.55231-2.3727 0.1578 1.1272 0.68193 1.764 1.5273 2.2092 0.6143 0.32124 1.2624 0.6143 1.764 1.0314 0.16344 0.13526 0.29306 0.3156 0.47904 0.42268 0.18034-0.0394 0.18598-0.24234 0.12962-0.40577-0.14653-0.41705-0.87918-0.6763-0.86227-1.161 0.67629 0.15216 1.3526 0.51849 1.3977 1.2511 0.04509 0.7721-0.4565 0.99753-0.90172 1.285 0.71011-0.0507 1.1102-0.41142 1.2117-1.0314 0.07327-0.44523-0.05072-0.90736-0.2198-1.161-0.67066-0.99753-2.8742-0.52976-3.6238-1.3977-0.3945-0.64812-0.79464-1.3864-0.7721-2.3896 0.19725 0.56921 0.55794 0.97499 1.3413 0.95808 0.17471-0.27052 0.50722 0.0169 0.56921 0.16344-0.14653 6e-3 -0.16907-0.11272-0.29306-0.12963-0.48468 0.23107-1.0877-0.062-1.3977-0.29306 0.07327 0.43396 0.5354 0.78338 1.0313 0.71575 0.1578-0.0226 0.30433-0.0958 0.47904-0.0902 0.20852 0 0.38323 0.0676 0.58612 0.0733 0-0.13526-0.12399-0.24234-0.18598-0.38887-0.02254-0.062-0.01691-0.14653-0.05636-0.20289-0.14089-0.19725-0.43395-0.11271-0.7721-0.14653-0.78337-0.0789-1.1272-0.58048-1.1046-1.4878 0.01127-0.46777 0.0789-1.1948 0.5354-0.90173 0.01691 0.16344 0.06763 0.34379 0.09017 0.5354 0.04509 0.33815 0.01691 0.73265 0.25925 0.88482 0.07326-0.0394 0.05072-0.17471 0.12962-0.20289 0.09581-0.0225 0.11272 0.11272 0.18598 0.0564 0.10708-0.32124 0.1409-0.70447 0.25925-1.0088 0.09581-0.0507 0.1578 0.0394 0.27615 0.0169-0.18598-0.72138-0.76083-1.0821-0.81155-1.9105-0.01691-0.2367 0.0056-0.49031 0.03945-0.7721 0.10708-0.9919 0.32688-2.1303 0.27615-3.2011-0.01127-0.26488-0.01691-0.65375-0.09017-0.88482-0.14653-0.42832-0.61994-0.65938-1.1215-0.40577 0.20289-0.35506 0.32688-0.85101 0.29306-1.3808 0.19162 0.31561 0.06763 0.8341-0.03945 1.161 0.06199 0 0.09017-0.0338 0.16344-0.0169-0.08454-0.29869 0.04509-0.51285 0.2198-0.64247-0.09581-0.63121 0.32688-0.98063 0.27615-1.5611 0.07326-0.11836 0.11835-0.36069 0.2367-0.36633-0.10144 0.27615-0.34942 0.9299 0.12962 0.97499-0.23107-0.6143 0.33251-1.3695 0.05636-2.0796 0.14653 0.0958 0.1578 0.32124 0.38887 0.33251-0.30433-0.43396-0.33251-1.1384-0.78901-1.4146-0.37196-0.0113-0.58612-0.50159-0.93554-0.29306 0.0056 0.0902 0.17471 0.0225 0.18598 0.11271-0.17471 0.0338-0.38887 0.18598-0.58612 0.14653-0.14089-0.0282-0.19162-0.15216-0.29306-0.21979 0.26488-0.34942 1.1102-0.0282 1.3582-0.40578-0.13526 0.0169-0.2987-0.0394-0.45086-6e-3zm5.5512 0.25361c-0.58612 0.0282-1.2004 0-1.7076 0.0395-0.86227 0.0564-1.2906 0.67065-1.0483 1.6006 0.03945-0.0225 0.06763 0.0451 0.07327 0-0.12962-0.23107-0.03382-0.71575 0.16344-0.73829-0.04509 0.0902-0.06199 0.16907-0.07327 0.25925-0.09017 0.91299 0.55231 1.1272 1.1215 1.4146-0.06763-0.0113-0.0789 0.0282-0.07326 0.0902-0.06199 1.95-1.0595 2.9588-2.9419 3.0884 0.01691 0.0676 0.01691 0.1578 0.03945 0.21979 1.8147-0.0282 2.9531-1.1384 3.0884-2.8686 0.02254-0.30997-0.02254-0.55231-0.09017-0.81155-0.58612 0.24797-0.83973-0.72138-0.2198-0.69884-0.38887-0.70447 1.037-0.68756 0.62557 0 0.62557-0.12962 0.52976 0.81155 0 0.71575 0.09581 2.6432-1.1666 3.9338-3.3082 4.3395-0.0789 0.55231-0.10144 1.2173-0.07327 1.8598 0.01691 0.35505 0.09581 0.69884 0.12962 1.0314 0.07327 0.76083 0.06199 1.4653 0.46213 1.9331 0.12962 0.0507 0.28742 6e-3 0.36633-0.0564 0.10144-0.24234 0.11835-0.5354 0.12962-0.82846 0.03381-0.81719 0.11835-1.5104 0.27615-2.136 0.03381-0.14653 0.04509-0.30997 0.12962-0.42268-0.11272 2.3276 0.36069 4.0803 1.285 5.3709 0.26488 0.19725 0.51849 0.50158 0.97499 0.43959-0.4734-2.0571-0.74956-4.3114-0.81155-6.7855-0.0789 0.0282-0.16344 0.0845-0.27615 0.0733-0.20289-0.0169-0.32124-0.27616-0.42268-0.25925 0.18598 1.9387 0.40014 3.9394 0.73829 5.664-0.22543-0.34942-0.24234-0.82283-0.33251-1.268-0.23107-1.1553-0.25925-2.5305-0.49595-3.6971-0.22543 0.16907-0.63684 0.0113-0.7721-0.18599 0.02254 0.41705-0.16344 0.61994-0.56921 0.60867-0.12962 0.92427 0.06199 1.9274 0.03945 2.8123-0.16907-0.83973-0.30997-1.9725-0.11272-2.8686-0.23107-0.25361-0.54667-0.52413-0.46213-1.0314 0.23107 0.33815 0.2367 0.99754 0.84537 0.90173 0.10708-0.12962 0.15217-0.27052 0.14653-0.47904-0.0056-0.25361-0.17471-0.55794 0-0.68193 0.15217 0.36632 0.17471 0.94681 0.73829 0.84536 0.13526-0.18034 0.14653-0.54103 0.09017-0.82845-0.02818-0.15217-0.16344-0.33815 0-0.38887 0.2198 0.24797 0.29306 0.81155 0.78901 0.65938 0.14653-0.30433-0.0056-0.56357-0.11272-0.75519-0.06199-0.11272-0.16907-0.2367-0.12962-0.33251 0.26488 0.0733 0.36069 0.46777 0.81155 0.42268 0.14089-0.0845 0.07326-0.3156 0-0.43959-0.12399-0.21416-0.43959-0.36633-0.36633-0.5354 0.20289 0.0225 0.44523 0.26488 0.73829 0.20289 0.2198-0.36633-0.3156-0.51849-0.46213-0.75519 0.16344-0.0564 0.55794 0.20852 0.73829-0.0169 0.04509-0.40014-0.45086-0.35506-0.51286-0.58612 0.21416-0.0451 0.48468-0.0394 0.60866-0.18598 0.05636-0.35506-0.34378-0.24234-0.5354-0.34942 0.10708-0.2198 0.60303-0.062 0.5354-0.36633-0.04509-0.19161-0.41705-0.0564-0.47904-0.20289 0.2987-0.16343 0.52413 0.0845 0.64248 0.25925 0.24797 0.35505 0.54104 0.58612 0.90172 0.90173 0.26488 0.23106 0.55794 0.49031 0.86227 0.56921 0.27052 0.0676 0.74956 0.062 0.97499-0.16344-0.90172-0.71574-1.8598-1.4766-2.5756-2.3163 0.82282 0.34378 2.491 0.50158 2.5925-0.5354-1.1497-0.1409-2.2318-0.35506-3.1448-0.73829 1.1384-0.0225 2.2205-0.20289 2.2599-1.268-0.48468 0.0958-1.1215 0.23107-1.8091 0.25925zm-5.2976 0c0.0789 0.19161 0.33815 0.20288 0.51286 0.29306 0.0789 0.0789 0.27615 0.29869 0.33251 0.27615-0.06199-0.3945-0.44523-0.851-0.84537-0.56921zm-0.18034 1.9162c0.15217-0.11835 0.33251-0.40578 0.27615-0.68193-0.05072-0.25361-0.40578-0.51849-0.68193-0.62557-0.48468-0.19162-1.1272-0.13526-1.2117-0.65939-0.20289-0.15216-0.26488 0.13526-0.34942 0.2198-0.38323 0.0451-0.75519 0.36069-0.56921 0.78901 0.078901-0.47904 0.86791-0.49031 1.1779-0.20289 0.42268-0.30433 1.2061-0.062 1.3582 0.34942 0.04509 0.11271 0.0789 0.37196 0 0.5354-0.24234 0.49031-1.1441 0.0113-1.6175 0.2367 0.41141 0.15217 1.2061 0.35505 1.6175 0.0395zm-7.304-0.69884c-0.90736 0.34942-1.9218 0.5974-2.9588 0.82283 0.12962 1.0933 1.7189 0.70447 2.4628 0.42268-0.6932 0.913-1.6287 1.5724-2.3727 2.429 0.78901 0.3776 1.3526-0.12962 1.8204-0.56921 0.30997-0.28743 0.60866-0.6143 0.78901-0.88482 0.061994-0.0958 0.056358-0.16344 0.14653-0.21979 0.10144-0.0676 0.36069-0.15217 0.46213 0-0.14653 0.10144-0.4565 0.0169-0.47904 0.20288-0.011272 0.0902 0.095808 0.18598 0.20289 0.2198 0.11272 0.0338 0.30997-0.0451 0.34942 0.0902-0.16907 0.1409-0.58049 0.0676-0.55231 0.33251 0.022543 0.2198 0.41705 0.18035 0.65939 0.2367-0.14089 0.16344-0.61994 0.26489-0.5354 0.55231 0.095808 0.32124 0.66502-0.0958 0.75519 0.0394-0.15217 0.24234-0.51286 0.28743-0.51286 0.68193 0.27052 0.29306 0.6143-0.19162 0.82846-0.12962-0.011272 0.14653-0.17471 0.27615-0.27615 0.42268-0.10144 0.1409-0.24234 0.30997-0.11272 0.51286 0.20852 0.0564 0.36069-0.0169 0.47904-0.11272 0.13526-0.10708 0.20289-0.30997 0.34942-0.33251 0.045086 0.16907-0.2367 0.46213-0.27615 0.75519-0.028179 0.2198 0.050722 0.36633 0.20289 0.38887 0.40578 0.0451 0.43959-0.50158 0.64248-0.71574 0.1578 0.0789 0.016907 0.36069 0 0.58612-0.033815 0.43395 0.16344 0.85664 0.5354 0.5354 0.18034-0.16344 0.20289-0.56358 0.30997-0.7721 0.20289 0.11835-0.00564 0.4565 0.016907 0.73828 0.016907 0.15781 0.073265 0.26489 0.12962 0.38887 0.61994 0.18035 0.63684-0.54667 0.84537-0.90172 0.11272 0.4565-0.2198 0.78337-0.42268 1.0482 0.22543 0.80592 0.12962 2.0514-0.016907 2.8686-0.078901-0.87354 0.14653-2.1416-0.073265-2.8517-0.42268 0.11272-0.55231-0.19725-0.58612-0.5354-0.090172 0.0169-0.14653 0.16344-0.29306 0.2198-0.14653 0.0564-0.3156 0.0564-0.46213-0.0394-0.20852 1.4033-0.21416 3.1504-0.47904 4.4692-0.03945 0.18598-0.033815 0.41141-0.18598 0.5354 0.26488-1.1722 0.28179-2.5192 0.40578-3.8042 0.061994-0.64248 0.23107-1.2624 0.12962-1.9331-0.12962 0.21416-0.41705 0.43395-0.69884 0.2367 0.084537 2.4741-0.16907 4.7397-0.5354 6.8249 0.33251-0.0113 0.60866-0.14653 0.78901-0.33251 1.0539-1.0708 1.3582-3.404 1.3075-5.5174 0.18034 0.47904 0.25361 1.0877 0.30997 1.7076 0.056358 0.60866 0.084537 1.2455 0.36633 1.6569 0.42268 0.18034 0.56358-0.39451 0.60866-0.73829 0.045086-0.38887 0.067629-0.89609 0.11272-1.3977 0.078901-0.95245 0.045086-1.9331-0.090172-2.7221-2.2994-0.30434-3.4998-1.7133-3.4773-4.3396-0.52413 0.15216-0.63684-0.80592-0.056358-0.68193-0.028179-0.10145-0.050722-0.20852-0.073265-0.30997 0.12399-0.43959 0.94681-0.20289 0.68193 0.30997 0.58612-0.0507 0.50158 0.87354-0.14653 0.68193-0.17471 1.0426 0.15217 2.0909 0.69884 2.7221s1.3413 0.96372 2.429 0.95808c0.022543-0.062 0.050722-0.12399 0.039451-0.21979-1.9274-0.0902-2.9419-1.0934-3.0546-2.9982 0.028179-0.0902-0.084537-0.0394-0.073265-0.11271 0.28742-0.18598 0.74392-0.27616 0.93554-0.58612 0.17471-0.28179 0.17471-0.74956 0.073265-1.0877 0.24234 0.10144 0.19162 0.51849 0.2198 0.73829 0.20289-0.49595-0.03945-1.0877-0.30997-1.3413-0.49595-0.2367-1.161-0.24797-1.8373-0.21979-0.89609 0.0394-1.702-0.0113-2.4065-0.16344 0.050722 1.1102 1.1666 1.161 2.2599 1.2342zm6.8813-1.1046c-0.10144 0-0.13526 0.0733-0.2198 0.0902-0.07327 0-0.07327-0.0733-0.12962-0.0902-0.04509 0.23107 0.43395 0.16908 0.34942 0zm0.14653 1.1779c0.06763 0.0282 0.15217 0.0338 0.2198 0.0564-0.02254-0.27616-0.15217-0.45086-0.38887-0.51286 0.06763 0.13526 0.15217 0.25925 0.16907 0.4565zm4.1536 0.38323c-0.16907-0.0225-0.27052 0.0225-0.34942 0.0902-0.1578 0.40015 0.28742 0.55231 0.5354 0.4396 0.34378 1.1722-0.11272 2.4121-0.7721 3.032-0.56358 0.52977-1.347 0.77774-2.243 0.90173 0.01127 0.10708 0.03381 0.19725 0.05636 0.29306 2.2261-0.22543 3.3984-1.6907 3.218-4.193 0.60303 0.16907 0.64248-0.74956 0-0.56921 0.05636-0.12399 0.13526-0.28179 0.05636-0.43959-0.36069-0.25925-0.73829 0.13525-0.50158 0.44522zm-10.133 0.0169c0.33251-0.29306-0.15217-0.73265-0.43959-0.42268-0.061994 0.14653 0.028179 0.33251 0.03945 0.40577-0.59176-0.0507-0.38887 0.76083 0.090172 0.55231-0.016907 0.26488-0.028179 0.5354 0 0.78901 0.095808 0.90172 0.35505 1.7471 0.88482 2.3332 0.5354 0.60303 1.4315 1.1046 2.5023 1.0652 0-0.11271 0.00564-0.22543-0.016907-0.30997-2.2205-0.0564-3.4378-1.6175-3.1617-3.9169 0.58612 0.32687 0.76083-0.63684 0.10144-0.49595zm3.8267-0.14653c0.62557-0.16907 1.5442-0.19725 2.243-0.12962-0.66502-0.19726-1.7302-0.21416-2.243 0.12962zm2.0796 0.20289c0.11272-0.0338 0.23107-0.062 0.2367-0.20289-0.18598-0.0338-0.21416 0.0845-0.2367 0.20289zm2.8686 2.2825c-0.07327 0.0169-0.26488-0.0113-0.33251 0.0733-0.06763 0.0845-0.01127 0.20289 0.05636 0.27616 0.76083-0.0451 1.2117-0.65375 1.268-1.3808 0.01127-0.17471-0.01127-0.3776-0.11272-0.49595 0.0789 0.78901-0.28742 1.3977-0.87918 1.5273zm-7.8732-0.0169c0.27052 0.16907 0.5354 0.51286 0.97499 0.38887 0.16344-0.3776-0.24234-0.27052-0.49595-0.33251-0.22543-0.0507-0.48468-0.33251-0.60866-0.58612-0.12962-0.26488-0.16344-0.52413-0.18598-0.86228-0.16344 0.51849 0.095808 1.0708 0.3156 1.392zm12.855 3.6914c-0.45086-0.44522-0.83973-1.0257-1.2117-1.7076-0.2367-0.43395-0.55794-0.91299-0.81155-1.3808-0.12962-0.24234-0.24798-0.60867-0.49595-0.34942 0.36069 0.1578 0.41705 0.72702-0.11272 0.69884 0.07326 0.1578 0.24234 0.28742 0.18598 0.51285 0.55231 0.71011 1.1779 1.6006 1.8204 2.2825 0.40014 0.42832 0.7552 0.92427 1.5273 0.86228-0.09017-0.2198-0.25361-0.41142-0.38887-0.60867-0.9919-1.4315-1.826-3.0433-2.6826-4.5988-0.03945 0.0845-0.12399 0.11835-0.2198 0.14653 0.13526 0.0902 0.33251 0.27052 0.20289 0.51285 0.71011 1.2624 1.4766 2.5699 2.2599 3.6971 0-0.0169-0.01691-0.0225-0.01691-0.0395-0.02254 0-0.04509-0.0113-0.05636-0.0282zm-17.803 1.1779c0.67066-0.0451 1.0595-0.58048 1.4146-0.9919 0.46213-0.53539 0.93554-1.0877 1.268-1.7076 0.2198-0.13525 0.32124-0.42268 0.42268-0.68192 0.061994-0.15781 0.16344-0.30434 0.14653-0.40578-0.52413 0.0338-0.44523-0.52413-0.11272-0.69884-0.073265-0.0225-0.12962-0.0676-0.2198-0.0733-0.7721 1.223-1.3019 2.7784-2.2825 3.7309 0.80592-1.2004 1.5104-2.4966 2.1529-3.8605-0.016907-0.062-0.056358-0.10145-0.056358-0.18599 0.056358-0.12398 0.14653-0.20852 0.25925-0.27615-0.10708-0.0282-0.16907-0.10144-0.25925-0.14653-0.82282 1.8485-1.7865 3.5674-2.7334 5.2976zm15.121-2.1867c0.36069 1.2455 0.74956 2.5136 1.1948 3.6802 0.18034 0.47341 0.45086 0.913 0.51286 1.4371-0.43396-0.80028-0.74956-1.6907-1.0652-2.5925-0.32124-0.913-0.59176-1.8654-0.81155-2.8686-0.16344 0.0902-0.43395 0.0507-0.58612-0.0169 0 0.68757 0.20289 1.2906 0.42268 1.8598 0.52976 1.3695 0.94681 2.8855 1.6175 4.1028 0.34378 0.61994 0.74392 1.2286 1.5611 1.2512-0.47904-1.2117-1.1328-2.5079-1.4146-3.9676-0.09581-0.50159-0.15217-1.0201-0.27615-1.5273-0.06763-0.28179-0.19162-0.58612-0.29306-0.88481-0.20852-0.60867-0.45086-1.1215-0.78901-1.5442-0.10144 0.0902-0.30997-0.0169-0.40578 0.0169 0.23107 0.24797 0.2198 0.67629 0.33251 1.0539zm-11.846-0.90172c0-0.0113 0-0.0225-0.016907-0.0169-0.37196 0.56921-0.63121 1.1328-0.81155 1.8598-0.2367 0.98627-0.3156 2.2938-0.60866 3.2744-0.28742 0.96372-0.74392 1.9556-1.0313 2.8855 0.14653-0.0169 0.25361-0.0676 0.40578-0.0733 0.55231-0.25361 0.83973-0.76646 1.0877-1.3075 0.74956-1.64 1.3357-3.5562 1.8598-5.3709-0.090173-0.14653-0.056358-0.42832-0.016907-0.60867-0.16344 0.0958-0.35505 0.12963-0.56921 0.0564-0.34378 1.7302-0.83973 3.3927-1.4146 4.8919-0.084537 0.21416-0.11835 0.46213-0.29306 0.62557 0.43959-1.392 0.92427-2.8404 1.3075-4.2663 0.067629-0.25361 0.11835-0.50722 0.18598-0.75519 0.073265-0.26488 0.095808-0.51286 0.14653-0.78901 0.033815-0.16907 0.1578-0.34378 0.14653-0.42268-0.12962 0.0169-0.24797 0.0507-0.3776 0.0169zm8.1493 7.5407c0.43959 0.66502 1.0652 1.3751 1.5104 2.0965 0.09581 0.1578 0.25361 0.34378 0.12962 0.43959-0.22543 0.0338-0.45086 0.062-0.69884 0.0733-0.05636 0.19162-0.29306 0.19725-0.38887 0.34942 0.19725 0.24234 0.3945-0.0958 0.58612-0.12962 0.12399-0.0226 0.28179 0.0338 0.42268 0.0169 0.1409-0.0169 0.24797-0.0676 0.38887-0.0902 0.04509 0.12962 0.24234 0.11272 0.40578 0.12962 0.16344 0.23671 0.59739 0.20289 0.65939 0.5354 0.2987-0.0169 0.24797 0.41141 0.51286 0.36633 0.07326-0.0902-0.0789-0.27052 0-0.42269-0.05072-0.11835-0.19162-0.10707-0.29306-0.16343-0.06763-0.0394-0.10144-0.11835-0.16344-0.16344-0.10144-0.0789-0.25361-0.15217-0.36632-0.2198-0.11835-0.0676-0.28742-0.11835-0.29306-0.25924 0.3776 0.29306 0.95808-0.0451 1.4371-0.0733-0.01127 0.24798 0.30433 0.24234 0.30997 0.0169 0.13526 0.0394 0.20289 0.1578 0.40578 0.12962 0.04509 0.16344 0.24234 0.46214 0.42268 0.25925-0.05072-0.18035-0.25361-0.20289-0.30997-0.36633 0.03382-0.0338 0.05072-0.0845 0.05636-0.14653-0.3945 0.10708-0.55231-0.21979-0.86227-0.21979-0.3776 0-0.7721 0.45086-1.1948 0.14653 0.09017-0.10145 0.18598-0.19725 0.20289-0.36633 0.07326-6e-3 0.13526-0.0282 0.18598-0.0564 0.03945-0.10145-0.03945-0.12963-0.05636-0.2198 0.08454-0.0225 0.14653-0.0733 0.2367-0.0902 0.07327 0.12398 0.44523 0.10144 0.43959-0.0733-0.25361-0.11835-0.71574-0.16343-0.86227 0.0564-0.08454 0.12962-0.07326 0.34378-0.16344 0.47904-0.1409 0.20853-0.36069 0.2367-0.68193 0.20289-0.52976-0.91863-1.1159-1.7753-1.6569-2.6826-0.26488-0.0113-0.30997 0.20289-0.32124 0.44523zm-4.2156 0.0902c-0.10144-6e-3 -0.20289-0.0845-0.27615-0.0564-0.011271 0-0.022543 0-0.016907 0.0169-0.36069 0.43959-0.88482 1.1215-1.268 1.6175-0.15217 0.19161-0.26488 0.40577-0.40578 0.56921-0.34378 0.41705-0.56358-0.30997-0.68193-0.60866-0.21416-0.15217-0.56921-0.16344-0.82846-0.27616-0.095808 0.11272-0.30433 0.11272-0.33251 0.29306 0.084537 0.12963 0.23107-0.0169 0.33251-0.0394 0.10144 0.12399 0.34378 0.0338 0.47904 0.0564 0.050722 0.0395 0.022543 0.14653 0.056358 0.20289 0.28742 0.0169 0.19162 0.41705 0.38887 0.5354-0.2198 0.0451-0.3945-0.0451-0.56921-0.0902-0.18034-0.0507-0.41705-0.15216-0.56921-0.14653-0.20852 0.0113-0.36069 0.24234-0.58612 0.29306-0.073265 0.0169-0.13526-0.0282-0.2198 0.0395-0.045086 0.0564 0.045086 0.10144 0.016907 0.20288-0.18598 0.0845-0.36069 0.45087 0.073265 0.38887 0.11272-0.0789 0.12399-0.27052 0.2198-0.36632 0.18034-0.0282 0.28179-0.13526 0.46213-0.16344 0.056358 0.20852 0.25925 0.10708 0.33251-0.0169 0.2198 0.10708 0.58612 0.0733 0.84537 0.14653-0.24234 0.43959-0.72702 0.64248-1.0652 0.9919 0.22543 0.13526 0.045086 0.40014 0.039451 0.56921 0.28742 0.0451 0.24797-0.38323 0.34942-0.58612 0.33251-0.0564 0.50722-0.26488 0.64248-0.51285 0.21416-0.0226 0.35505-0.11836 0.42268-0.29307 0.23107-0.0113 0.59176-0.14089 0.73829 0.0395 0.11272 6e-3 0.20289-6e-3 0.29306-0.0169 0.078901 0.0789 0.34942 0.25361 0.46213 0.0733 0-0.0902-0.10708-0.062-0.16344-0.0902-0.056358-0.0789-0.095808-0.17471-0.14653-0.25925-0.18034-0.0563-0.65939 0.1409-0.71574-0.0733-0.022543-0.0789 0.14089-0.25925 0.18598-0.30997 0.52976-0.65375 1.1891-1.33 1.6006-1.9669-0.056358-0.0564-0.078901-0.10145-0.095808-0.16344zm7.597 1.1779c0.03382 0.0282 0.06763 0.0564 0.12962 0.0564 0.02818-0.062 0.17471-0.16343 0.09017-0.21979-0.06199 0.062-0.21416 0.0394-0.2198 0.16344zm-11.255 0.11271c0.033815-0.0282 0.067629-0.0564 0.056358-0.12962-0.090172-0.0394-0.18598-0.0733-0.30997-0.0733 0.028179 0.11835 0.11835 0.18035 0.25361 0.20289zm12.669 1.1553c0.02254 6e-3 0.02818 0.0225 0.03945 0.0394 0.12962-0.0394 0.25361-0.0733 0.30997-0.18598-0.11835-0.13526-0.35505-0.0507-0.34942 0.14653zm-4.007 0.11271c0.02818-0.0282 0.06763-0.0451 0.05636-0.11271-0.01691-6e-3 -0.02254-0.0169-0.01691-0.0394-0.24797-0.10145-0.25925 0.14089-0.03945 0.15216zm-5.8105 0c0.10144 0 0.16344-0.0451 0.18598-0.12962-0.095808-0.062-0.27615 0.0113-0.18598 0.12962zm-4.0634 0.0733c0.12962 0.0507 0.34378 0 0.25925-0.16344-0.14089-0.0394-0.24234 0.0282-0.25925 0.16344zm12.726 0.82846c0.0789 0.0225 0.16907 0.0395 0.27615 0.0395 0.02254-0.17471-0.2987-0.28743-0.27615-0.0395zm-11.751 0.51285c0.10144-0.0451 0.19162-0.10144 0.29306-0.14653 0.011272-0.0676-0.03945-0.0733-0.03945-0.12962-0.16907 6e-3 -0.27052 0.0789-0.25361 0.27615zm11.531-16.879c0.07327-0.0958 0.19162-0.1409 0.25924-0.2367-0.13526-0.0282-0.28742-0.0282-0.42268-0.0564h-0.14653c-0.06199-0.0225 0.05072-0.0225 0.07326-0.0169 0.25925 0.0113 0.56358-0.0225 0.78901 0.0169-0.05072 0.0958-0.20289 0.0958-0.2367 0.20289 0.67066 0.0733 1.4371-0.0733 1.95-0.27616 0.11272-0.0338-0.03945 0.0507-0.09017 0.0733-0.5354 0.24234-1.347 0.30997-2.1754 0.29306zm0.7721 1.0652c-0.03382-6e-3 -0.04509 0.0225 0 0.0169 0.67629 0.24797 1.5442 0.58048 2.4628 0.40577-0.9299 0.0338-1.7133-0.21979-2.4628-0.42268zm2.0232 2.7954c-0.65939-0.43396-1.2342-1.0426-1.7809-1.5273 0.49031 0.59176 1.0933 1.1835 1.7809 1.5273zm-13.92-4.0465c-0.15217 0.0564-0.38323 0.0338-0.51286 0.11271 0.056358 0.0845 0.1578 0.12399 0.25925 0.16344-0.80028 0.1409-1.7527 0.0113-2.3332-0.2367 0.54103 0.12962 1.3019 0.27052 2.0232 0.21979-0.045086-0.10144-0.17471-0.12398-0.25925-0.18598 0.2367-0.0451 0.58048-0.0845 0.82282-0.0733zm-0.92427 1.4315c0-0.0225-0.00564-0.0451-0.039451-0.0394-0.74392 0.25925-1.5104 0.50159-2.4628 0.55231 1.0313 0.10144 1.7584-0.26488 2.5023-0.51286zm-0.27615 1.2512c-0.47904 0.6312-1.0483 1.1722-1.7076 1.6175 0.078901-0.11836 0.21416-0.19162 0.33251-0.29306 0.33815-0.28743 0.69884-0.62558 0.9919-0.97499 0.18598-0.0564 0.2198-0.27052 0.38323-0.34942z" stroke-width=".056358"/><g fill="#f5d306" stroke-width=".056358"><path id="Rechte_Kralle" d="m12.393 14.298c0.54103 0.90736 1.1272 1.764 1.6569 2.6826 0.32124 0.0338 0.5354 6e-3 0.68193-0.20289 0.09581-0.13525 0.0789-0.34941 0.16344-0.47904 0.14653-0.21979 0.6143-0.17471 0.86227-0.0564 0 0.1747-0.36633 0.19725-0.43959 0.0733-0.09581 0.0169-0.15217 0.0676-0.2367 0.0902 0.01691 0.0902 0.09581 0.12399 0.05636 0.2198-0.05072 0.0282-0.11272 0.0507-0.18598 0.0564-0.01691 0.16907-0.11272 0.27051-0.20289 0.36632 0.42268 0.2987 0.81719-0.14653 1.1948-0.14653 0.3156 0 0.46777 0.32688 0.86227 0.2198-0.0056 0.062-0.01691 0.11835-0.05636 0.14653 0.06199 0.16907 0.26488 0.19161 0.30997 0.36632-0.18034 0.20853-0.3776-0.0958-0.42268-0.25924-0.20289 0.0282-0.27052-0.0845-0.40578-0.12963-0.0056 0.22543-0.32124 0.23107-0.30997-0.0169-0.47904 0.0282-1.0539 0.36632-1.4371 0.0733 0.0056 0.1409 0.17471 0.18598 0.29306 0.25925 0.11272 0.0676 0.27052 0.14089 0.36633 0.21979 0.06199 0.0507 0.09581 0.12963 0.16344 0.16344 0.10144 0.0564 0.24798 0.0451 0.29306 0.16344-0.0789 0.1578 0.07327 0.33251 0 0.42268-0.26488 0.0451-0.21416-0.38887-0.51286-0.36632-0.06763-0.33252-0.49595-0.2987-0.65939-0.5354-0.16344-0.0169-0.35505 0-0.40578-0.12963-0.14089 0.0226-0.24234 0.0733-0.38887 0.0902-0.1409 0.0169-0.2987-0.0395-0.42268-0.0169-0.19162 0.0338-0.38887 0.37196-0.58612 0.12962 0.09581-0.15216 0.33251-0.1578 0.38887-0.34942 0.24797-0.0113 0.4734-0.0394 0.69884-0.0733 0.12399-0.10145-0.02818-0.28179-0.12962-0.43959-0.44523-0.72138-1.0708-1.4315-1.5104-2.0965 0.02254-0.22543 0.06763-0.43959 0.32124-0.44523zm3.0715 1.7302c0.03382 0.0282 0.06763 0.0564 0.12962 0.0564 0.02818-0.062 0.17471-0.16343 0.09017-0.21979-0.06199 0.062-0.21416 0.0394-0.2198 0.16344zm1.4146 1.268c0.02254 6e-3 0.02818 0.0225 0.03945 0.0394 0.12962-0.0394 0.25361-0.0733 0.30997-0.18598-0.11835-0.13526-0.35505-0.0507-0.34942 0.14653zm-4.007 0.11271c0.02818-0.0282 0.06763-0.0451 0.05636-0.11271-0.01691-6e-3 -0.02254-0.0169-0.01691-0.0394-0.24797-0.10145-0.25925 0.14089-0.03945 0.15216zm2.8517 0.90173c0.0789 0.0225 0.16907 0.0395 0.27615 0.0395 0.02254-0.17471-0.2987-0.28743-0.27615-0.0395z"/><path id="Linke_Kralle" d="m7.9462 14.997c-0.41141 0.63684-1.0708 1.3131-1.6006 1.9669-0.045086 0.0564-0.20289 0.23671-0.18598 0.30997 0.056358 0.21416 0.54103 0.0169 0.71574 0.0733 0.050722 0.0845 0.090172 0.18034 0.14653 0.25924 0.056358 0.0282 0.16907 6e-3 0.16344 0.0902-0.10708 0.18034-0.3776 6e-3 -0.46213-0.0733-0.090172 0.0113-0.18598 0.0225-0.29306 0.0169-0.14653-0.17471-0.50158-0.0451-0.73829-0.0394-0.067629 0.17471-0.20852 0.27051-0.42268 0.29306-0.14089 0.24797-0.30997 0.46213-0.64248 0.51285-0.10144 0.20289-0.061994 0.63685-0.34942 0.58612 0.011272-0.1747 0.18598-0.43395-0.039451-0.56921 0.33815-0.34942 0.82282-0.55231 1.0652-0.9919-0.25925-0.0733-0.62557-0.0394-0.84537-0.14653-0.073265 0.12399-0.27052 0.22544-0.33251 0.0169-0.18034 0.0282-0.27615 0.1409-0.46213 0.16344-0.095808 0.10144-0.10708 0.28742-0.2198 0.36632-0.43395 0.062-0.25925-0.30433-0.073265-0.38886 0.028179-0.10145-0.061994-0.1409-0.016907-0.20289 0.084537-0.0676 0.14653-0.0226 0.2198-0.0395 0.22543-0.0507 0.3776-0.28179 0.58612-0.29306 0.15217-6e-3 0.3945 0.0958 0.56921 0.14653 0.18034 0.0507 0.35505 0.14089 0.56921 0.0902-0.19162-0.11272-0.095808-0.51286-0.38887-0.5354-0.033815-0.0507-0.00564-0.16344-0.056358-0.20289-0.12962-0.0169-0.3776 0.0676-0.47904-0.0564-0.10144 0.0225-0.24234 0.16907-0.33251 0.0395 0.028179-0.18035 0.2367-0.18035 0.33251-0.29306 0.25925 0.11271 0.6143 0.12398 0.82846 0.27615 0.11272 0.29869 0.33251 1.0201 0.68193 0.60866 0.14089-0.16344 0.25361-0.37759 0.40578-0.56921 0.38323-0.49595 0.913-1.1779 1.268-1.6175-0.00564-0.0169 0.00564-0.0169 0.016907-0.0169 0.073265-0.0282 0.17471 0.0507 0.27615 0.0564 0.033815 0.0789 0.056358 0.12399 0.095808 0.16344zm-3.7365 1.1441c0.033815-0.0282 0.067629-0.0564 0.056358-0.12962-0.090172-0.0394-0.18598-0.0733-0.30997-0.0733 0.028179 0.11835 0.11835 0.18035 0.25361 0.20289zm3.0377 1.1384c-0.016907 0.0845-0.084537 0.12399-0.18598 0.12962-0.090172-0.11835 0.090172-0.19162 0.18598-0.12962zm-3.9958 0.0338c0.084537 0.16344-0.12399 0.21416-0.25925 0.16344 0.022543-0.12962 0.12399-0.19725 0.25925-0.16344zm0.97499 1.2342c-0.00564 0.0564 0.050722 0.062 0.03945 0.12962-0.10144 0.0451-0.19162 0.10145-0.29306 0.14653-0.016907-0.19725 0.084537-0.27052 0.25361-0.27615z"/><path id="Rechter_Kleestengel" d="m15.335 2.6601c0.0789 0.1578 0 0.31561-0.05636 0.43959 0.64248-0.18034 0.60303 0.74393 0 0.56922 0.18034 2.5023-0.9919 3.9676-3.218 4.193-0.01691-0.0958-0.04509-0.18598-0.05636-0.29306 0.89609-0.12398 1.6795-0.36632 2.243-0.90172 0.65939-0.62557 1.1159-1.8598 0.7721-3.032-0.24797 0.11272-0.68756-0.0394-0.5354-0.43959 0.0789-0.0676 0.18034-0.11271 0.34942-0.0902-0.23107-0.31561 0.14653-0.71011 0.50158-0.44523z"/><path id="Linker_Kleestengel" d="m4.5985 3.6182c-0.27615 2.2994 0.94117 3.8605 3.1617 3.9169 0.022543 0.0845 0.016907 0.20289 0.016907 0.30997-1.0708 0.0395-1.9669-0.46777-2.5023-1.0652-0.52413-0.59176-0.78901-1.4371-0.88482-2.3332-0.028179-0.25924-0.016907-0.52412 0-0.78901-0.47904 0.20853-0.68756-0.60302-0.090172-0.5523-0.011272-0.0676-0.095808-0.25361-0.039451-0.40578 0.28742-0.30997 0.7721 0.12963 0.43959 0.42269 0.66502-0.14653 0.49031 0.81718-0.10144 0.49594z"/><path id="Schnabel" d="m9.3382 3.3026c0.47341-0.22543 1.3751 0.25361 1.6175-0.2367 0.0789-0.16344 0.04509-0.41705 0-0.5354-0.1578-0.41141-0.93554-0.65375-1.3582-0.34942-0.30997-0.28742-1.0933-0.27615-1.1779 0.20289-0.18598-0.42832 0.18598-0.74956 0.56921-0.78901 0.084537-0.0845 0.14653-0.37196 0.34942-0.2198 0.084537 0.52413 0.73265 0.47341 1.2117 0.65939 0.27615 0.10708 0.63121 0.37196 0.68193 0.62557 0.05636 0.27615-0.12399 0.56358-0.27615 0.68193-0.40578 0.3156-1.2004 0.11272-1.6175-0.0395z"/></g><g stroke-width=".056358"><path id="Zunge" d="m10.775 2.8404c-0.69884-0.0676-1.6231-0.0394-2.243 0.12962 0.51286-0.34378 1.578-0.32688 2.243-0.12962z" fill="#e64625"/><path id="Gefieder" d="m16.017 4.7002c-0.02254 0.0789-0.2198 0.0676-0.29306 0.0395 0.01127-0.12398 0.2198-0.0733 0.29306-0.0395zm-0.38887 0.62557c0.11835-0.0113 0.28179 0.0225 0.36632-0.0169-0.10144-0.0169-0.3156-0.13526-0.36632 0.0169zm-0.10708 0.64248c0.13526 0.0226 0.25361 0.1409 0.40578 0.0902-0.09581-0.10145-0.27615-0.11272-0.40578-0.18599v0.0958zm-0.25925 0.60867c0.17471 0.0394 0.28179 0.14653 0.46213 0.18598-0.11272-0.12963-0.2987-0.19162-0.46213-0.27616v0.0902zm-0.36632 0.58612c0.16344 0.062 0.26488 0.28742 0.43959 0.27615-0.12962-0.1578-0.25924-0.32124-0.43959-0.42268-0.04509 0.0451 0 0.0902 0 0.14653zm-0.18598 0.97499c-0.09017-0.22543-0.1578-0.47904-0.34942-0.60867 0.08454 0.23671 0.16907 0.47341 0.34942 0.60867zm-0.86227 0.5354c-0.01691-0.2198-0.09017-0.52977-0.2198-0.69884 0 0.2367 0.11835 0.50722 0.2198 0.69884zm-0.91863 0.27615c-0.01691-0.25361-0.09581-0.44523-0.12962-0.68193h-0.09017c0.04509 0.25361 0.06763 0.52976 0.2198 0.68193zm-8.9383-4.0634c-0.067629-0.0564-0.28742 0.0394-0.29306-0.0733 0.090172-0.0169 0.28742-0.0564 0.29306 0.0733zm-0.25925 0.60303c0.13526-0.0113 0.2987 6e-3 0.36633-0.0733-0.10708-0.0958-0.2987 0.0113-0.36633 0.0733zm0.095808 0.72138c0.17471-0.0394 0.40578-0.0225 0.43959-0.20289-0.14089 0.0733-0.36069 0.0676-0.43959 0.20289zm0.2367 0.65939c0.18034 0.0113 0.40578-0.0845 0.46213-0.25925-0.18034 0.062-0.32124 0.16344-0.46213 0.25925zm0.42268 0.69883c0.17471-0.0338 0.42268-0.24797 0.42268-0.46213-0.17471 0.11835-0.29306 0.2987-0.42268 0.46213zm0.64248 0.66503c0.12399-0.0226 0.14089-0.18598 0.18598-0.27616 0.050722-0.11271 0.10708-0.22543 0.14653-0.33251-0.022543 0-0.028179-0.0225-0.056358-0.0169-0.10144 0.19162-0.20852 0.38887-0.27615 0.62558zm0.90172 0.51285c0.056358-0.22543 0.18598-0.4734 0.18598-0.69883h-0.056358c-0.050722 0.20288-0.16344 0.53539-0.12962 0.69883zm0.94117 0.2367c0.095808-0.18598 0.15217-0.41141 0.14653-0.69883h-0.056358c-0.045086 0.20852-0.11835 0.48467-0.090172 0.69883zm2.9926 4.2099c0.045086 0.28179 0.078901 0.64248 0.03945 0.95808-0.090172-0.24797-0.090172-0.66502-0.03945-0.95808zm-0.016907 3.111c-0.11272-0.92427-0.20289-1.8711-0.33251-2.7784-0.033815 0.6932 0.061994 1.3019 0.16344 1.9838 0.078901 0.52977 0.12962 1.0877 0.16344 1.6344 0.061993 1.0314 0 2.1021 0.056358 3.1448 0.00564 0.11835 0.011271 0.24234 0.073265 0.36633-0.20852-2.4854 0.19725-4.8862 0.33251-7.1518-0.08454 1.0032-0.10708 2.0627-0.4565 2.801zm1.161-11.565c0.05072 0-0.01691 0.27616 0.05636 0.30997 0.03382 6e-3 0.05636-0.0845 0.07327-0.0394-0.01691 0.0958-0.06199 0.1578-0.07327 0.25925-0.1578-0.0902-0.06199-0.34942-0.05636-0.52977zm-0.42268 1.5048c0.01127-0.15217 0.12399-0.29306 0.11272-0.40578-0.05072 0.0282-0.05072 0.10708-0.11272 0.12962-0.05072-0.062 0.01691-0.2367-0.03945-0.29306-0.06199 0.1409-0.14653 0.49595 0.03945 0.56922zm-0.91863 1.4371c0.016907-0.11272 0.078901-0.17471 0.056358-0.33251-0.095808-0.0225 0.022543 0.16907-0.073265 0.14653-0.20852-0.17471-0.045086-0.74392-0.11272-0.97499-0.022543 0.3776-0.16344 0.96935 0.12962 1.161zm-0.2987-0.49595c-0.011272-0.12399-0.13526-0.0902-0.20289-0.14653-0.11835-0.10708-0.090172-0.25924-0.12962-0.46213-0.056358 0.30433 0.00564 0.62557 0.33251 0.60866zm0.79464 0.32688c0.0056-0.0169 0.01691-0.0226 0.03945-0.0169 0.01691-0.0676 0.03382-0.1578 0-0.2198-0.0789-0.0282-0.0056 0.0958-0.05636 0.0902-0.16344-0.0902-0.1578-0.34379-0.2198-0.5354 0.01691 0.28742-0.01691 0.6312 0.2367 0.68193zm-0.38887 1.8204c0.2987-0.0338 0.33251-0.65375 0.33251-0.99189-0.08454 0.21979-0.07326 0.91863-0.36633 0.90172-0.27615-0.0169-0.27615-0.65939-0.34942-0.90172 0.022543 0.38886 0.033815 1.037 0.38323 0.99189zm0.62557 0.49595c0.04509 0.36069-0.10144 0.89609 0.05636 1.2117 0.28179 0.0507 0.40578-0.29869 0.49595-0.49595 0.10708-0.23106 0.18598-0.45649 0.2198-0.64247 0.01691 0.50158-0.22543 0.90172-0.46213 1.2117-0.20852 0.11835-0.34942-0.0394-0.42268-0.16344-0.1578 0.18035-0.20289 0.50722-0.47904 0.51286-0.30997 0.0113-0.3776-0.39451-0.49595-0.65939-0.12962 0.13526-0.067629 0.3776-0.30997 0.38887-0.38323 0.0113-0.52413-0.86791-0.62557-1.1779 0.10144 0.18035 0.15217 0.3776 0.25925 0.60867 0.067629 0.15216 0.19725 0.47904 0.36633 0.47904 0.3156-6e-3 0.20852-0.90173 0.20289-1.2117 0.10144 0.56922 0.20289 1.1441 0.55231 1.4709 0.52976-0.19725 0.51286-0.94117 0.64248-1.5329zm-0.11272 1.7133c0.10708 0.24797-0.16907 0.76646 0.12962 0.90172 0.34942-0.10144 0.35505-0.5523 0.49595-0.86227 0.0056 0.45086-0.20289 1.1272-0.71574 0.93554-0.06763 0.11271-0.12962 0.23106-0.2198 0.30996-0.11835 0.0225-0.16907 6e-3 -0.29306 0-0.090172-0.10144-0.16344-0.21979-0.2198-0.34941-0.34942 0.41704-0.65375-0.36633-0.69884-0.7552 0.12962 0.24234 0.16907 0.78901 0.47904 0.7552 0.30997-0.0394 0.067629-0.58612 0.11272-0.90173 0.090172 0.33815 0.11835 1.1666 0.5354 1.1215 0.33251-0.0338 0.28179-0.87354 0.3945-1.1553zm-0.03382-5.2244c-0.01691 0.32688 0.01127 0.7552 0.2367 0.90173 0.10144 0.0394 0.09017-0.10145 0.14653-0.0564 0.04509 0.062-0.01691 0.12962-0.05636 0.16344-0.34942-0.0789-0.37196-0.58613-0.32688-1.0088zm-1.8373 1.7865c0.095808 0.28743 0.16344 0.74393 0.29306 0.9919 0.028179 0.0564 0.11835 0.19162 0.20289 0.18598 0.19162-0.0225 0.24797-0.66502 0.25925-0.90172 0.00564-0.0733 0-0.16344 0-0.23671 0.12962 0.40578 0.11272 1.0652 0.36633 1.3413 0.10144 0.10708 0.21416 0.12962 0.34942 0.0394 0.30997-0.2198 0.38887-0.85664 0.43959-1.3582 0.05636 0.24797-0.03945 0.90736 0.18598 1.1046 0.3776-0.11835 0.3945-0.59739 0.46213-1.0314 0.08454 0.22543 0.0056 0.60867 0.16344 0.7552 0.2987-0.14653 0.34378-0.55231 0.42268-0.91864 0.03945 0.19726-0.10708 1.099-0.40578 1.0483-0.12399-0.0225-0.09017-0.2198-0.20289-0.29306-0.05072 0.3776-0.47341 0.89045-0.65939 0.29306-0.20289 0.20852-0.20289 0.61993-0.64248 0.58612-0.24234-0.16907-0.3156-0.50722-0.46213-0.7721-0.078901 0.14089-0.12399 0.30433-0.18598 0.46213-0.32124 0.0733-0.37196-0.25924-0.46213-0.47904-0.10708 0.0282-0.11835 0.14653-0.20289 0.20289-0.34378-0.1409-0.3156-0.64812-0.34942-1.1046 0.084537 0.38323 0.073265 0.85663 0.36633 1.0313 0.18598-0.19161 0.061994-0.66502 0.061994-0.94681zm1.0088 2.26c0.14653 0.20289 0.1578 0.54103 0.34942 0.69884 0.24797-0.0958 0.25925-0.42832 0.34942-0.68193 0 0.30996-0.05636 0.80591-0.42268 0.75519-0.13526-0.21416-0.21416-0.48468-0.27615-0.7721zm0.73829 1.3244c-0.01127-0.0902 0.05636 0.0169 0 0.0169-0.02818 0.2987-0.08454 0.72702-0.30997 0.7552-0.25925 0.0338-0.28179-0.44523-0.34942-0.69884 0.11272 0.19162 0.12962 0.48468 0.33251 0.58612 0.17471-0.14653 0.22543-0.42832 0.32688-0.65938z"/><path id="Auge" d="m10.189 1.5386c0.05636 0.0169 0.05636 0.0902 0.12962 0.0902 0.08453-0.0225 0.11835-0.0902 0.2198-0.0902 0.08454 0.16908-0.3945 0.23107-0.34942 0z" fill="#fff"/></g><g transform="matrix(.0044444 0 0 .0044444 9.7824 3.1429)" fill="#ffc900" stroke="#000" stroke-linecap="round" stroke-linejoin="round" stroke-width="20"><path d="m550 2370-300-1385 220-55-220 55-240-685c133 40 240-60 304 80 7-31 30-23 35-53 30 176 209 163-18 497l14 6c129-224 141-124 226-210 11 52 38 71 11 115 139 6 182 349 18 414 14 55-12 69-11 112-79-84-178-18-256-115a451.09 410.99-7 0 0 887-163c-38 118-154 92-197 198-15-40-44-44-51-100-176-2-259-337-132-393-41-31-22-59-30-111 110 50 86-48 286 115l11-11c-332-230-160-293-195-457 16 26 34 11 51 37-8-119 139-115 191-184 68 54 210 15 230 132 11-30 32-19 41-48 8 178 188 187-78 491l13 7c155-206 155-105 250-180 4 52 29 74-3 115 137 23 138 369-33 413 7 56-20 67-25 110-68-93-174-39-239-145a450 500 7 0 0 895-55c-52 113-164 73-220 173-10-42-38-49-38-106-175-23-216-366-83-406-37-36-15-61-17-114 103 63 91-37 270 149l12-9c-301-269-124-300-137-478 12 28 32 15 46 43 6-119 152-97 212-159 60 62 206 40 212 159 14-28 34-15 46-43-13 178 164 209-137 478l12 9c179-186 167-86 270-149-2 53 20 78-17 114 133 40 92 383-83 406 0 57-28 64-38 106-56-100-168-60-220-173a450 500-7 0 0 895 55c-65 106-171 52-239 145-5-43-32-54-25-110-171-44-170-390-33-413-32-41-7-63-3-115 95 75 95-26 250 180l13-7c-266-304-86-313-78-491 9 29 30 18 41 48 20-117 162-78 230-132 52 69 199 65 191 184 17-26 35-11 51-37-35 175 137 227-195 457l11 11c200-163 176-65 286-115-8 52 11 80-30 111 127 56 44 391-132 393-7 56-36 60-51 100-43-106-159-80-197-198a451.09 410.99 7 0 0 887 163c-78 97-177 31-256 115 1-43-25-57-11-112-164-65-121-408 18-414-27-44 0-63 11-115 85 86 97-14 226 210l14-6c-227-334-48-321-18-497-25 30 28 22 35 53 64-140 171-40 304-80l-240 685-220-55 220 55-300 1385m-3477-350a9e3 9e3 0 0 1 3554 0m-3234-58 45 223m215-494 37 226m286-31 28 228m240-482 18 229m1176 0 18-229m240 482 28-228m286 31 37-226m215 494 45-223"/><g id="PK"><path d="m2020 740h460m-230-240v200"/><circle id="P" cx="2250" cy="720" r="85"/></g><use transform="rotate(7 2250 9e3)" width="100%" height="100%" xlink:href="#PK"/><use transform="rotate(-7 2250 9e3)" width="100%" height="100%" xlink:href="#PK"/><use transform="rotate(14 2250 9e3)" width="100%" height="100%" xlink:href="#P"/><use transform="rotate(-14 2250 9e3)" width="100%" height="100%" xlink:href="#P"/><path d="m314 1280c136 487 917 450 973-130 133 507 783 489 963-50 180 539 830 557 963 50 56 580 837 617 973 130" fill="none"/><path d="m404 1695a9e3 9e3 0 0 1 3692 0c40 10 20 113-20 103a9e3 9e3 0 0 0-3652 0c-40 10-60-93-20-103m141 655c-40 10-63-98-23-108a9e3 9e3 0 0 1 3456 0c40 10 17 118-23 108"/><path d="m1910 2194v-434a340 340 0 0 1 680 0v434m-570-4v-430a230 230 0 0 1 460 0v430"/><path d="m2150 1370h200l-30 180h-140z"/><path d="m2250 1553v652" stroke-width="25"/><path d="m555 2355a9e3 9e3 0 0 1 3390 0" stroke-width="35"/></g><path d="m27.987 13.765h-16.444v13.778c0 1.8222 0 3.5556 2.4444 4.9778l5.7778 3.2444 5.7778-3.2444c2.4889-1.4222 2.4444-3.1556 2.4444-4.9778z" fill="#fff" stroke="#000" stroke-width=".26667"/><path d="m20.774 16.987c-0.24889-0.12-0.69778-0.0489-1.1111-0.11555-0.83111-0.13334-0.93333-0.36889-0.93333-0.54223-0.0044-0.18222-0.16889-0.19111-0.16889 4e-3 0.0044 1.1556 1.7422 0.56444 2.2356 0.86222m-5.6756-0.60444c0.0044-0.31112-0.20889-0.51112-0.39556-0.52889 0.11111 0.12889 0.13333 0.31555 0.15111 0.49777-0.03556-0.25777-0.22667-0.42666-0.39111-0.43555 0.08889 0.0933 0.13778 0.28444 0.14667 0.47111-0.02667-0.14222-0.16-0.35556-0.38222-0.37778 0.10222 0.10667 0.13333 0.30667 0.15556 0.48889-0.03111-0.15555-0.19111-0.33333-0.36889-0.34667 0.07556 0.0622 0.13778 0.28889 0.15111 0.46223-0.02222-0.0711-0.14667-0.24445-0.34222-0.26667 0.10222 0.0933 0.14667 0.32 0.16444 0.49778m0.77778 4.24c-0.05333-0.24444-0.26667-0.50222-0.50667-0.47111 0.11111 0.0756 0.19556 0.36 0.22667 0.54222-0.07555-0.20444-0.26222-0.42222-0.48444-0.39555 0.12 0.10667 0.19111 0.36889 0.23556 0.56444-0.12-0.22666-0.26667-0.39555-0.48444-0.36889 0.14667 0.14223 0.2 0.39112 0.23556 0.58223-0.07111-0.16-0.23556-0.35556-0.45778-0.33334 0.13778 0.12445 0.19556 0.39556 0.24444 0.59556-0.08889-0.12-0.22222-0.28889-0.43111-0.27111 0.13778 0.13333 0.2 0.39555 0.25778 0.59556m1.8756 7.6578c-0.23556-0.14222-0.56-0.0933-0.71111 0.10222 0.16889-0.0311 0.41778 0.0622 0.51556 0.14223-0.16-0.10223-0.49333-0.04-0.62222 0.13778 0.15111-0.04 0.39556 0.0622 0.52444 0.13777-0.16889-0.0578-0.43111-0.0444-0.59556 0.15556 0.13778-0.0311 0.36444 0.0444 0.51111 0.12889-0.20889-0.0489-0.41333 0.0311-0.53333 0.17333 0.18222-0.04 0.38667 0.0667 0.51111 0.12445-0.23556-4e-3 -0.37778 0.0889-0.46222 0.18666 0.15111-0.0311 0.38222 0.0489 0.55111 0.13778m6.4933 0.0356c-0.30667-0.04-0.56 0.14666-0.63556 0.36444 0.08444-0.0667 0.35111-0.10667 0.52444-0.0533-0.24-0.0133-0.48 0.18222-0.52889 0.36 0.09778-0.08 0.40889-0.10222 0.52444-0.0533-0.21778 9e-3 -0.42667 0.17333-0.48889 0.35555 0.10222-0.0667 0.38667-0.0933 0.54667-0.0533-0.23556 0.0356-0.40444 0.20444-0.45778 0.36 0.14222-0.0933 0.32889-0.0845 0.56-0.0711-0.24 0.0889-0.32 0.19111-0.4 0.35111 0.13333-0.0845 0.36889-0.0889 0.6-0.0711" fill="#f33b1d" stroke-width=".0044444"/><path d="m20.089 15.138-1.0844 0.04c-0.05333 4e-3 -0.09333 0.0311-0.09333 0.0933 0.0044 0.39112 0.08 0.64445 0.36 0.84889-0.03556 0.21778-0.01333 0.32889 0.21333 0.51112 0.02222-0.17778 0.09333-0.25778 0.20444-0.33334 0.0089 4e-3 0.01778 4e-3 0.02222 9e-3 -0.01333 0.08-0.01333 0.16445 0.0044 0.21333 0.04444 0.12445 0.26222 0.12889 0.32 0.04 0.05333 0.12889 0.16444 0.13334 0.25333 0.13334 0.09333 0 0.13778-0.0667 0.16889-0.12889 0.05333 0.0444 0.10667 0.0933 0.15556 0.15555 0.15556 0.21334 0.18222 0.48889 0.18222 0.75112-0.04889 4e-3 -0.09778 9e-3 -0.14667 0.0133v-0.10667c-0.0044-0.15111-0.35556-0.17777-0.43556-0.0489-0.08889-0.0978-0.36444-0.08-0.36444 0.0756v0.0489c-0.06222-0.08-0.11111-0.16445-0.15111-0.24889-0.11111 0.0711-0.17778 0.12444-0.16 0.37778-0.04889 4e-3 -0.09778 9e-3 -0.14222 0.0133 0.0044 0.29334 0.13333 0.37334 1.1822 0.35111 0.02667 0.29334-0.26667 0.45778-0.48444 0.59556-0.56889 0.32444-1.1689 0.68-1.4933 1.2756-0.27111 0.47111-0.33778 1.0311-0.30667 1.5733l0.31111-0.13778 0.03556 0.16889c-0.56 0.26667-1.5822 0.80889-2.2533 1.12-0.16444 0.0756-0.59111 0.18223-0.68 0.0311-0.30667-0.52889-0.55111-0.92889-0.90667-1.3333-0.18222-0.20889-1.3911 0.79111-1.1689 1.1289 0.50667 0.76889 1.3333 1.8711 2.7111 1.88 1.4267 9e-3 2.6667-0.51555 2.9378-0.59555l0.05778 0.18222c-0.18222 0.08-0.34222 0.13778-0.53333 0.2 0.24889 0.97778 0.53778 1.36 1.2089 1.9556l-0.13778 0.10222c-0.12-0.0711-0.32444-0.29778-0.43556-0.40445-1.4267 0.67556-1.96 1.3511-2.3022 2.0489-0.37778 0.84-0.30667 1.7956-0.14667 2.68 0.03111 0.14667-0.12889 0.21778-0.24889 0.17333-0.32889-0.0756-0.51111-0.40444-0.82667-0.52444-0.14222-0.0622-0.32889-0.13334-0.48444-0.10667-0.25333 0.0444-0.52444 1.3244-0.26667 1.4489 0.48 0.23556 1.0044 0.28445 1.5378 0.56 0.35111 0.14223 0.68889 0.37334 1.0889 0.31111 0.22667-0.0222 0.45333-0.17777 0.47556-0.41777 0.2-0.86223 0.48-1.7778 1.1378-2.4 0.31556-0.31111 0.72445-0.56 1.1289-0.75111-0.16-0.61333-0.28-1.2267-0.26667-1.8667l0.19556-9e-3c0.14222 2.4356 0.79111 2.9467 1.9333 4.08 0.11556 0.11555 0.10667 0.33333-0.06222 0.4-0.22222 0.11111-0.48444 0.11555-0.73778 0.12889-0.27111 0.0133-0.06667 1.5156 0.33333 1.5022 0.70222-0.0222 1.4311-0.56889 1.8533-1.1067 0.17778-0.22222 0.39111-0.44444 0.56-0.66222 0.20889-0.27111-0.01778-0.58667-0.08-0.83556-0.17333-0.71111-0.25333-2.7556-0.26222-3.04l0.24889 4e-3 0.03555-0.51555c-0.74222-0.92-0.62222-2.36-0.92889-3.2889-0.12-0.37778-0.25333-0.76889-0.25333-1.1689 0-0.54223 0.61333-1.56 0.6-2.4667-0.0044-0.38223-0.21778-0.88001-0.21333-1.1067 0.0044-0.65778 0.38222-0.51556 0.37333-1.8844-0.0044-0.37778-0.04889-0.65778-0.14667-1.0444 0.66222-0.69777-0.24889-1.3956-0.77334-0.96-0.42222-0.11111-0.47556-0.22222-1.3022-0.22222-0.70667 0-1.1111 0.19111-1.5511 0.48445m-1.28 4.08c-0.46667 0.57334-0.72889 0.86222-0.71111 2.2533-4.4044-2.5156-3.1156-2.8756-4.08-4.3778-0.15111-0.23555 0.83111-0.78222 1.1422-0.55111 0.62667 0.46223 0.39556 1.3333 0.91556 1.7289 0.51556 0.39111 1.4356 0.56445 2.7333 0.94667m2.6889-3.2311c-0.06667 0-0.18667-0.0356-0.22222-0.0845-0.38667-0.59111-0.48444-0.37778-0.54222-0.17333-0.04889 0.18222-0.26222 0.18666-0.2-0.0578 0.15556-0.6 0.57778-0.51556 1.1022 0.31556m1.1333-0.59556c0.10667-0.14222 0.27111-0.28 0.44889-0.33778 0.26222-0.0889 0.36889 0.12445 0.16 0.19556-0.17333 0.0755-0.32 0.18222-0.44444 0.30666m-3.6133 0.60001c0.06667 0.04 0.16 0.0889 0.29778 0.12888-0.07556 0.0622-0.14667 0.15112-0.16889 0.24889-0.12-0.0844-0.16889-0.24-0.12889-0.37777m0.71111 0.23555c0 0.0578-0.01333 0.11556-0.03111 0.14222-0.04444 0.0711-0.20889 0.0667-0.24444-0.0311-0.01333-0.04-0.01333-0.11111 0.0044-0.17778 0.08889 0.0222 0.18222 0.04 0.27111 0.0667m0.05333 0.0133c0.12 0.0356 0.23556 0.0756 0.33778 0.14223-0.02222 0.0533-0.06222 0.10666-0.14222 0.10666-0.07111 0-0.15111-4e-3 -0.19556-0.0889-0.02222-0.0444-0.01333-0.10666 0-0.16m-0.50222 1.1778c-0.01333-0.12444 0-0.23111 0.09778-0.30222 0.04889 0.0889 0.10222 0.17333 0.16444 0.24889v0.0311m0.04444-2e-3v-0.14c0-0.14667 0.31111-0.13778 0.31556 0v0.11111m0.04-4e-3v-0.12445c0-0.14667 0.36-0.13778 0.36-4e-3v0.0978" stroke-width=".0044444"/></svg>
